<svg xmlns="http://www.w3.org/2000/svg" version="1.1" xmlns:xlink="http://www.w3.org/1999/xlink" xmlns:svgjs="http://svgjs.com/svgjs" width="512" height="512" x="0" y="0" viewBox="0 0 32 32" style="enable-background:new 0 0 512 512" xml:space="preserve" class=""><g><path d="m24.053 15.292c0-4.44-3.613-8.053-8.053-8.053s-8.053 3.613-8.053 8.053 3.613 8.053 8.053 8.053 8.053-3.612 8.053-8.053z" fill="#944EE7" data-original="#000000"></path><path d="m27.616 11.326h-.551c-1.669-4.678-6.065-7.8-11.065-7.8s-9.395 3.122-11.065 7.8h-.551c-1.039 0-1.884.845-1.884 1.884v4.165c0 1.039.845 1.885 1.884 1.885h2.083c.276 0 .5-.224.5-.5v-6.934c0-.276-.224-.5-.5-.5h-.467c1.613-4.093 5.546-6.8 10-6.8s8.387 2.707 10 6.8h-.467c-.276 0-.5.224-.5.5v6.934c0 .276.224.5.5.5h.442c-1.381 3.477-4.492 6.006-8.188 6.628-.273-.725-.968-1.244-1.787-1.244-1.056 0-1.915.859-1.915 1.915s.859 1.915 1.915 1.915c.939 0 1.718-.68 1.88-1.573 4.207-.679 7.748-3.623 9.185-7.642h.55c1.039 0 1.884-.846 1.884-1.885v-4.164c.001-1.039-.844-1.884-1.883-1.884z" fill="#944EE7" data-original="#000000"></path></g></svg>