<svg xmlns="http://www.w3.org/2000/svg" version="1.1" xmlns:xlink="http://www.w3.org/1999/xlink" xmlns:svgjs="http://svgjs.com/svgjs" width="512" height="512" x="0" y="0" viewBox="0 0 512 512" style="enable-background:new 0 0 512 512" xml:space="preserve"><g><path d="m256.15 0c-.1 0-.2 0-.3 0-95.27 1.72-157.45 20.85-195.66 60.19-39.34 38.2-58.47 100.38-60.19 195.66v.3c1.72 95.28 20.85 157.46 60.19 195.66 38.21 39.34 100.39 58.47 195.66 60.19h.15.15c95.28-1.72 157.46-20.85 195.66-60.19 39.34-38.21 58.47-100.38 60.19-195.66 0-.1 0-.2 0-.3-1.72-95.27-20.84-157.45-60.19-195.66-38.21-39.34-100.39-58.47-195.66-60.19zm184.12 440.09c-.06.06-.12.12-.18.18-34.95 36.06-93.45 53.62-184.09 55.28-90.63-1.65-149.13-19.22-184.09-55.28-.06-.06-.12-.12-.18-.18-36.06-34.96-53.62-93.46-55.27-184.09 1.65-90.63 19.22-149.13 55.28-184.09l.18-.18c34.95-36.05 93.45-53.62 184.08-55.27 90.63 1.65 149.13 19.22 184.09 55.28l.18.18c36.06 34.96 53.63 93.46 55.28 184.09-1.66 90.63-19.23 149.12-55.28 184.08zm-103.55-172.95c3.21 3.21 3.21 8.42 0 11.63l-71.73 71.73c-1.48 2.16-3.97 3.59-6.79 3.59-.03 0-.07 0-.1 0s-.07 0-.1 0c-2.11 0-4.21-.8-5.82-2.41l-72.5-72.5c-3.21-3.21-3.21-8.42 0-11.63s8.42-3.21 11.63 0l58.66 58.66v-198.61c0-4.54 3.68-8.23 8.23-8.23 4.54 0 8.23 3.68 8.23 8.23v198.2l58.66-58.66c3.21-3.21 8.42-3.21 11.63 0zm-14.28 117.26c0 4.54-3.68 8.23-8.23 8.23h-116.42c-4.54 0-8.23-3.68-8.23-8.23 0-4.54 3.68-8.23 8.23-8.23h116.43c4.54.01 8.22 3.69 8.22 8.23z" fill="#FFFFFF" data-original="#000000"></path></g></svg>