<svg width="428" height="104" viewBox="0 0 428 104" fill="none" xmlns="http://www.w3.org/2000/svg">
<path d="M21.2368 81.9891C18.4156 82.0123 15.6067 81.6148 12.9026 80.8099C10.4498 80.0884 8.15883 78.9014 6.15469 77.3139C4.2148 75.7554 2.66637 73.7647 1.63314 71.5009C0.495775 68.9155 -0.0598887 66.1118 0.00539805 63.288V61.5011H14.8849C14.8824 62.4771 15.0039 63.4495 15.2466 64.3949C15.4723 65.3021 15.843 66.1669 16.3444 66.9559C16.8255 67.71 17.4805 68.3377 18.2543 68.7862C19.11 69.2651 20.0793 69.5038 21.0595 69.4771C21.8111 69.4875 22.5573 69.349 23.2551 69.0697C23.9529 68.7903 24.5885 68.3756 25.1253 67.8494C25.6809 67.3307 26.1203 66.7002 26.4146 65.9994C26.7089 65.2986 26.8513 64.5434 26.8326 63.7836C26.8623 62.939 26.6808 62.1004 26.3045 61.3437C25.9462 60.687 25.4627 60.107 24.8811 59.6364C24.2591 59.1311 23.5761 58.7058 22.8482 58.3704C22.0886 58.0195 21.3049 57.6807 20.497 57.354C19.5746 56.9223 18.68 56.5431 17.813 56.2163C16.9461 55.8896 16.0792 55.5369 15.2122 55.1583C13.3429 54.3644 11.5231 53.4584 9.76287 52.4454C8.09285 51.4927 6.56119 50.3158 5.21058 48.9475C3.90394 47.6137 2.84397 46.059 2.07986 44.3554C1.26055 42.4572 0.858428 40.4052 0.900655 38.3381C0.852413 35.7719 1.4686 33.2367 2.68938 30.9789C3.86072 28.8629 5.46856 27.0202 7.40625 25.5729C9.39767 24.0885 11.6235 22.9478 13.9914 22.1981C19.277 20.4717 24.9994 20.6443 30.1713 22.6864C32.954 23.6998 35.4403 25.3906 37.4058 27.6058C38.7326 29.2398 39.7273 31.1174 40.3339 33.1329C40.8558 35.1543 41.1554 37.2266 41.2274 39.313H26.3642C26.2709 37.8342 25.7947 36.405 24.9824 35.1658C24.5057 34.5863 23.8927 34.1343 23.1982 33.8502C22.5037 33.5661 21.7496 33.4588 21.0034 33.5381C19.6751 33.5306 18.3842 33.9773 17.3446 34.8041C16.8218 35.1943 16.4009 35.7048 16.1175 36.2923C15.8342 36.8798 15.6967 37.527 15.7169 38.179C15.693 39.0639 15.9187 39.9375 16.368 40.7002C16.928 41.4593 17.6503 42.084 18.4822 42.5287C19.5119 43.1533 20.623 43.7634 21.8155 44.359C23.008 44.9547 24.1866 45.5099 25.3514 46.0248C26.5185 46.5408 27.3993 46.9339 27.9937 47.204C29.8601 48.0233 31.6761 48.9528 33.4323 49.9875C35.0372 50.9304 36.502 52.0939 37.7838 53.4437C39.0165 54.7615 39.9973 56.294 40.6776 57.9653C41.4217 59.896 41.7805 61.9537 41.7338 64.0223C41.8023 66.776 41.2613 69.5107 40.1495 72.0309C39.1525 74.2 37.6793 76.1164 35.8395 77.6376C33.9366 79.1718 31.7353 80.2934 29.3755 80.9311C26.7243 81.6568 23.9855 82.0128 21.2368 81.9891V81.9891Z" fill="#944EE7"/>
<path d="M75.6311 81.9891C67.5639 82.0204 59.7934 78.9492 53.9277 73.4108C51.093 70.7072 48.8142 67.4755 47.2195 63.8975C45.5535 60.1778 44.7078 56.143 44.7399 52.0673C44.7174 47.7818 45.5155 43.5316 47.0911 39.5462C48.0064 37.1845 49.2969 34.9859 50.9127 33.0353C53.7458 29.1926 57.4698 26.0955 61.7644 24.0102C66.1267 21.9704 70.8935 20.9422 75.7089 21.0025C79.8469 20.9745 83.9499 21.7624 87.7832 23.3212C91.4588 24.8061 94.8131 26.9868 97.6619 29.7436C100.496 32.5022 102.761 35.7896 104.33 39.4197C105.939 43.2418 106.768 47.347 106.768 51.494C106.768 55.641 105.939 59.7462 104.33 63.5683C102.761 67.1979 100.496 70.4846 97.6619 73.2426C94.8029 76.0061 91.4344 78.1879 87.7434 79.6668C83.8959 81.2231 79.7813 82.012 75.6311 81.9891V81.9891ZM75.7125 34.0987C73.4553 34.0714 71.2201 34.5439 69.1671 35.4823C67.2441 36.3625 65.5269 37.636 64.1265 39.2207C62.7273 40.8224 61.6381 42.6703 60.9143 44.6701C60.1467 46.7794 59.7614 49.0088 59.7767 51.2535C59.7613 53.5524 60.1462 55.8364 60.9143 58.0032C61.6282 60.0411 62.7342 61.9194 64.1699 63.5322C65.6046 65.1249 67.3469 66.4107 69.2919 67.3122C71.3795 68.2796 73.6577 68.766 75.9584 68.7355C78.1807 68.76 80.3787 68.273 82.3827 67.3122C84.2938 66.396 85.9955 65.0957 87.3817 63.4924C88.7827 61.8622 89.8715 59.988 90.5938 57.9634C91.3506 55.8925 91.7363 53.7043 91.7332 51.4994C91.741 49.2676 91.3552 47.0519 90.5938 44.9541C89.8605 42.9128 88.7568 41.0243 87.3383 39.3835C85.9285 37.7565 84.196 36.4404 82.2506 35.5185C80.2064 34.5575 77.9711 34.0721 75.7125 34.0987V34.0987Z" fill="#944EE7"/>
<path d="M110.349 21.0082H125.88V68.2547H144.011V82.0002H110.349V21.0082Z" fill="#944EE7"/>
<path d="M178.323 81.9891C170.256 82.0205 162.485 78.9492 156.619 73.4108C153.786 70.7067 151.508 67.4751 149.913 63.8975C148.245 60.1782 147.399 56.1432 147.432 52.0673C147.412 47.7813 148.213 43.5311 149.792 39.5463C150.706 37.1842 151.996 34.9856 153.612 33.0353C156.445 29.1932 160.169 26.0962 164.463 24.0103C168.826 21.97 173.592 20.9419 178.408 21.0025C182.545 20.9745 186.648 21.7624 190.48 23.3212C194.156 24.8066 197.511 26.9872 200.361 29.7436C203.194 32.5023 205.459 35.7897 207.027 39.4197C208.638 43.2415 209.467 47.3468 209.467 51.494C209.467 55.6412 208.638 59.7465 207.027 63.5684C205.459 67.1978 203.194 70.4846 200.361 73.2427C197.501 76.0062 194.132 78.188 190.44 79.6669C186.591 81.2239 182.475 82.0128 178.323 81.9891V81.9891ZM178.404 34.0987C176.147 34.0714 173.912 34.5439 171.859 35.4824C169.935 36.3621 168.218 37.6356 166.818 39.2207C165.418 40.8215 164.328 42.6696 163.606 44.6701C162.838 46.7793 162.452 49.0087 162.467 51.2535C162.452 53.5525 162.837 55.8365 163.606 58.0033C164.319 60.0415 165.425 61.92 166.862 63.5322C168.297 65.125 170.04 66.4108 171.985 67.3122C174.072 68.2793 176.35 68.7657 178.65 68.7356C180.872 68.7602 183.07 68.2732 185.074 67.3122C186.986 66.3956 188.688 65.0954 190.075 63.4924C191.476 61.8618 192.564 59.9877 193.287 57.9635C194.043 55.8922 194.428 53.7042 194.425 51.4994C194.432 49.2678 194.047 47.0523 193.287 44.9541C192.554 42.9128 191.45 41.0243 190.032 39.3835C188.623 37.7589 186.892 36.4441 184.95 35.5221C182.903 34.5592 180.665 34.0725 178.404 34.0987Z" fill="#944EE7"/>
<path d="M288.64 81.9891H271.73L268.395 77.9233L259.776 67.2723C261.854 66.1622 263.67 64.6206 265.103 62.7508C266.538 60.8802 267.575 58.7358 268.15 56.4496C268.583 54.8875 268.802 53.274 268.801 51.6531C268.807 49.4081 268.422 47.1793 267.664 45.0661C266.943 43.0196 265.838 41.1296 264.408 39.4974C262.986 37.8878 261.259 36.575 259.328 35.6342C257.289 34.6457 255.048 34.1448 252.783 34.171C250.525 34.1437 248.29 34.6162 246.237 35.5546C244.305 36.4399 242.575 37.7123 241.155 39.293C239.723 40.9002 238.607 42.7623 237.863 44.7822C237.07 46.9009 236.671 49.1467 236.684 51.409C236.673 53.684 237.072 55.9423 237.863 58.0755C238.599 60.1107 239.717 61.9872 241.155 63.6044C242.59 65.1969 244.332 66.4827 246.277 67.3844C248.365 68.3516 250.644 68.838 252.945 68.8079C253.845 68.8046 254.742 68.7235 255.627 68.5655L264.49 79.7789C260.742 81.2748 256.736 82.0209 252.701 81.9746C244.644 81.9953 236.882 78.9423 230.998 73.4379C228.161 70.7584 225.869 67.5556 224.248 64.006C222.554 60.3082 221.693 56.2829 221.729 52.2156C221.707 47.9302 222.505 43.6801 224.08 39.6945C224.536 38.5104 225.094 37.368 225.747 36.2798C226.399 35.1788 227.118 34.1193 227.901 33.1075C230.769 29.2901 234.504 26.2106 238.798 24.1242C242.853 22.2477 247.247 21.2159 251.713 21.0915C256.178 20.9671 260.623 21.7528 264.775 23.4007C268.444 24.8807 271.797 27.0463 274.654 29.7815C278.683 33.7668 281.529 38.7897 282.878 44.2936C284.227 49.7974 284.026 55.5673 282.297 60.9639C281.356 63.8494 279.985 66.5767 278.232 69.0538L288.64 81.9891Z" fill="#944EE7"/>
<path d="M402.138 77.054C403.921 73.9237 405.371 70.6155 406.465 67.1833L406.575 66.8253C407.5 63.8472 408.148 60.7903 408.513 57.6933L408.561 57.293C408.615 56.7865 408.664 56.2789 408.705 55.7456C408.715 55.6197 408.725 55.498 408.731 55.3948C408.77 54.879 408.802 54.3735 408.818 53.9C408.826 53.7607 408.835 53.6183 408.839 53.4873C408.858 52.9715 408.87 52.466 408.869 51.9904C408.869 51.8553 408.869 51.717 408.869 51.5778C408.869 51.0619 408.861 50.5606 408.846 50.0509L408.835 49.6723C408.815 49.1627 408.788 48.6551 408.753 48.1249C408.745 47.9949 408.738 47.868 408.728 47.7844C408.694 47.2686 408.648 46.7528 408.596 46.2741L408.425 44.4729H320.949C321.423 42.0374 322.145 39.6568 323.104 37.368C323.141 37.2721 323.18 37.1792 323.235 37.0585C326.081 30.3815 330.827 24.6883 336.882 20.6867C342.938 16.6851 350.036 14.5517 357.294 14.5517C364.552 14.5517 371.651 16.6851 377.706 20.6867C383.762 24.6883 388.508 30.3815 391.354 37.0585L391.766 38.0107H407.117L406.466 35.965C403.149 25.5258 396.595 16.4134 387.753 9.94745C378.912 3.48145 368.241 -0.00252663 357.288 1.37478e-06C346.334 0.00252938 335.666 3.49143 326.827 9.96151C317.989 16.4316 311.439 25.547 308.126 35.9877L308.015 36.3457C307.052 39.4608 306.387 42.6601 306.027 45.9007L305.992 46.2483C305.938 46.7642 305.889 47.2696 305.861 47.7473C305.849 47.8855 305.839 48.0248 305.832 48.1527C305.798 48.6603 305.771 49.1668 305.752 49.6868L305.741 50.0571C305.726 50.5647 305.718 51.0712 305.718 51.5829C305.718 51.7212 305.718 51.8635 305.718 51.9522C305.718 52.4681 305.729 52.9839 305.747 53.4739C305.747 53.608 305.759 53.7463 305.766 53.8566C305.786 54.3725 305.817 54.8821 305.853 55.369C305.861 55.4959 305.872 55.6218 305.884 55.761C305.922 56.2769 305.971 56.7803 306.028 57.3085L306.242 59.0571H393.565C393.09 61.3625 392.394 63.6167 391.487 65.7885C391.449 65.8855 391.409 65.9794 391.353 66.1063C391.03 66.8645 390.713 67.5454 390.364 68.2273C390.336 68.2851 390.309 68.3449 390.261 68.4409C390.022 68.9092 389.772 69.3693 389.496 69.8521L389.38 70.0585C389.119 70.5114 388.849 70.9539 388.555 71.4109C388.522 71.4635 388.49 71.5141 388.422 71.6173C388.144 72.0495 387.858 72.4725 387.554 72.9006C387.521 72.9481 387.488 72.9966 387.451 73.042L387.397 73.1131C387.106 73.5258 386.803 73.9323 386.498 74.3243L386.332 74.5306C386.022 74.9257 385.697 75.3177 385.347 75.7201L385.187 75.9027C384.863 76.2803 384.527 76.6465 384.137 77.055C384.108 77.087 384.075 77.121 384.042 77.1582L382.881 78.2651L407.434 102.823H427.923L402.138 77.054Z" fill="#944EE7"/>
<path d="M388.328 85.3978L384.641 81.7128L384.387 81.4539L383.069 80.1416L381.935 79.1017L380.824 80.1581L380.756 80.2118C380.364 80.5357 379.966 80.8504 379.532 81.1784L379.361 81.3074C378.948 81.6169 378.529 81.9119 378.087 82.2142L377.88 82.3514C377.45 82.6413 377.013 82.9188 376.569 83.1942C376.508 83.2324 376.443 83.2695 376.346 83.3263C375.902 83.5976 375.451 83.8545 374.993 84.1051L374.758 84.2331C374.297 84.4817 373.83 84.719 373.417 84.9212H373.409L373.087 85.0749C372.608 85.3049 372.125 85.5195 371.643 85.7228L371.356 85.8414C362.352 89.5398 352.253 89.543 343.247 85.8503C334.24 82.1576 327.05 75.0662 323.233 66.1114L322.821 65.1592H307.477L308.127 67.2049C311.763 78.6245 319.259 88.4234 329.329 94.9211C339.399 101.419 351.416 104.211 363.32 102.818C369.207 102.135 374.93 100.431 380.231 97.7815L385.278 102.828H405.759L388.541 85.6082L388.328 85.3978Z" fill="#944EE7"/>
<g opacity="0.51">
<path d="M408.534 101.682H408.158L393.27 86.7911L393.053 86.5765L391.966 85.4871L390.663 84.1841L390.437 83.9582L389.359 82.8802L389.13 82.6511L388.06 81.5803L387.819 81.3441L386.756 80.2804L386.515 80.0359L385.456 78.9765L385.201 78.7216C385.267 78.6587 385.33 78.5927 385.386 78.5298C385.755 78.146 386.108 77.7581 386.453 77.3588C386.512 77.2928 386.571 77.2258 386.627 77.1597C386.973 76.7605 387.31 76.3509 387.639 75.9373L387.805 75.7309C388.133 75.31 388.451 74.885 388.757 74.4486C388.813 74.3785 388.86 74.3052 388.916 74.2309C389.225 73.7956 389.525 73.352 389.817 72.8981C389.869 72.8238 389.921 72.7464 389.965 72.669C390.257 72.211 390.538 71.7498 390.811 71.2763C390.855 71.199 390.9 71.1216 390.944 71.0401C391.219 70.5635 391.481 70.0796 391.73 69.5886C391.774 69.5081 391.816 69.4225 391.856 69.3379C392.221 68.625 392.557 67.8936 392.871 67.1549C392.927 67.0332 392.974 66.9115 393.027 66.7856C394.214 63.9437 395.05 60.9674 395.516 57.9228H307.708C307.693 57.8001 307.678 57.6752 307.663 57.5535C307.612 57.0614 307.56 56.5704 307.526 56.0762C307.516 55.9504 307.504 55.8286 307.497 55.7069C307.46 55.2148 307.43 54.7237 307.411 54.2296C307.404 54.1079 307.397 53.982 307.394 53.8603C307.375 53.3692 307.364 52.8771 307.364 52.383C307.364 52.2612 307.364 52.1354 307.364 52.0136C307.364 51.5185 307.372 51.0274 307.387 50.5363L307.398 50.167C307.416 49.6718 307.442 49.1808 307.475 48.6897C307.483 48.5639 307.49 48.4421 307.501 48.3204C307.534 47.8252 307.579 47.3342 307.63 46.8431C307.642 46.7214 307.656 46.5955 307.667 46.4738C308.016 43.3423 308.66 40.2508 309.591 37.2406C309.628 37.1189 309.669 36.993 309.706 36.8713C312.922 26.7515 319.275 17.9176 327.845 11.6484C336.415 5.37918 346.758 2 357.377 2C367.995 2 378.338 5.37918 386.908 11.6484C395.479 17.9176 401.832 26.7515 405.047 36.8713H404.717C401.507 26.8371 395.192 18.0824 386.682 11.8708C378.173 5.65912 367.91 2.31174 357.375 2.31174C346.84 2.31174 336.577 5.65912 328.068 11.8708C319.559 18.0824 313.243 26.8371 310.033 36.8713C309.992 36.993 309.951 37.1148 309.914 37.2406C308.976 40.2494 308.327 43.3413 307.979 46.4738C307.964 46.5955 307.953 46.7214 307.942 46.8431C307.887 47.3342 307.846 47.8252 307.81 48.3204C307.798 48.4421 307.791 48.568 307.783 48.6897C307.75 49.1808 307.724 49.6718 307.705 50.167L307.695 50.5363C307.68 51.0274 307.672 51.5185 307.672 52.0136C307.672 52.1354 307.672 52.2612 307.672 52.383C307.672 52.8775 307.682 53.3699 307.701 53.8603C307.701 53.9851 307.713 54.1079 307.72 54.2296C307.738 54.7237 307.768 55.2148 307.806 55.7069C307.813 55.8286 307.823 55.9535 307.831 56.0762C307.872 56.5704 307.919 57.0614 307.975 57.5535H395.931C395.915 57.6783 395.897 57.8001 395.878 57.9228C395.414 60.9647 394.587 63.9401 393.416 66.7856C393.364 66.9074 393.313 67.0332 393.264 67.1549C392.909 67.9864 392.533 68.7983 392.123 69.5999C392.082 69.6845 392.038 69.7619 391.993 69.8475C391.742 70.3344 391.477 70.8183 391.203 71.2918C391.163 71.3728 391.118 71.4516 391.07 71.528C390.797 72.0005 390.513 72.4627 390.225 72.9208C390.173 72.9981 390.122 73.0714 390.073 73.1457C389.785 73.5965 389.482 74.0432 389.172 74.4785C389.12 74.5528 389.068 74.6261 389.013 74.6972C388.703 75.1285 388.386 75.5576 388.056 75.9744L387.89 76.1807C387.562 76.5985 387.226 77.006 386.878 77.4073C386.819 77.4733 386.764 77.5404 386.705 77.6023C386.361 78.0019 386.005 78.3936 385.637 78.7773L386.701 79.8368L386.941 80.0813L388.009 81.145L388.245 81.3812L389.316 82.4551L389.545 82.681L390.623 83.7591L390.849 83.984L391.931 85.0662L392.152 85.2921L393.238 86.3774L393.456 86.592L408.534 101.682Z" fill="white"/>
<path d="M413.763 101.682H413.383L395.742 84.0408L395.524 83.8221L394.431 82.7296L394.209 82.5077L391.584 79.8822L390.505 78.8032L390.268 78.5669C390.327 78.4968 390.383 78.4266 390.435 78.3606C390.771 77.9479 391.093 77.526 391.406 77.0979C391.461 77.0236 391.517 76.9534 391.565 76.8802C391.883 76.4479 392.189 76.0115 392.489 75.569C392.54 75.4947 392.592 75.4173 392.636 75.34C392.938 74.8933 393.227 74.4352 393.508 73.973C393.555 73.8998 393.604 73.8214 393.648 73.744C393.929 73.2756 394.202 72.8021 394.464 72.3224C394.512 72.2409 394.556 72.1604 394.597 72.0789C395.461 70.4884 396.22 68.8424 396.867 67.1519C396.918 67.0301 396.963 66.9043 397.007 66.7825C398.081 63.92 398.835 60.9478 399.256 57.9198C399.275 57.797 399.293 57.6753 399.308 57.5504C399.375 57.0583 399.429 56.5673 399.474 56.0731C399.489 55.9504 399.499 55.8255 399.507 55.7038C399.551 55.2117 399.588 54.7207 399.61 54.2265H311.096C311.096 54.1048 311.084 53.982 311.08 53.8572C311.063 53.3661 311.047 52.874 311.047 52.3799C311.047 52.2581 311.047 52.1323 311.047 52.0106C311.047 51.5154 311.054 51.0243 311.069 50.5333C311.069 50.4074 311.08 50.2857 311.083 50.1639C311.102 49.6687 311.128 49.1777 311.169 48.6866C311.169 48.5649 311.183 48.439 311.195 48.3173C311.232 47.8221 311.279 47.3311 311.335 46.84C311.346 46.7141 311.361 46.5924 311.379 46.4707C311.754 43.3294 312.452 40.2353 313.462 37.2375C313.502 37.1158 313.547 36.9941 313.588 36.8682C316.738 27.764 322.648 19.8682 330.495 14.2797C338.342 8.69123 347.736 5.68799 357.37 5.68799C367.004 5.68799 376.398 8.69123 384.245 14.2797C392.092 19.8682 398.002 27.764 401.152 36.8682H400.812C397.669 27.8518 391.798 20.0367 384.014 14.5066C376.23 8.97647 366.918 6.00543 357.37 6.00543C347.821 6.00543 338.509 8.97647 330.725 14.5066C322.941 20.0367 317.07 27.8518 313.927 36.8682C313.883 36.9899 313.839 37.1158 313.798 37.2375C312.779 40.2339 312.075 43.3283 311.697 46.4707C311.682 46.5924 311.667 46.7141 311.653 46.84C311.597 47.3311 311.55 47.8221 311.512 48.3173C311.501 48.439 311.494 48.5649 311.482 48.6866C311.449 49.1777 311.42 49.6687 311.401 50.1639C311.401 50.2857 311.391 50.4115 311.387 50.5333C311.372 51.0243 311.365 51.5154 311.365 52.0106C311.365 52.1323 311.365 52.2581 311.365 52.3799C311.365 52.874 311.379 53.3661 311.398 53.8572H399.972C399.972 53.982 399.965 54.1048 399.962 54.2265C399.936 54.7207 399.902 55.2117 399.859 55.7038C399.851 55.8255 399.84 55.9504 399.826 56.0731C399.781 56.5673 399.722 57.0625 399.662 57.5504C399.648 57.6753 399.629 57.797 399.611 57.9198C399.192 60.9463 398.444 63.9182 397.381 66.7825C397.336 66.9084 397.292 67.0301 397.24 67.1519C396.564 68.9293 395.767 70.6583 394.854 72.3265C394.81 72.407 394.765 72.4885 394.718 72.57C394.456 73.0514 394.181 73.5243 393.893 73.9885C393.848 74.0659 393.804 74.1391 393.752 74.2175C393.476 74.6787 393.184 75.1326 392.881 75.5834C392.833 75.6577 392.785 75.7351 392.729 75.8083C392.434 76.2519 392.123 76.6914 391.806 77.1195C391.756 77.195 391.703 77.268 391.647 77.3382C391.337 77.7664 391.008 78.1873 390.676 78.6009L393.069 80.9943L393.294 81.2192L394.384 82.3086L394.605 82.5304L395.695 83.6198L395.917 83.8416L413.763 101.682Z" fill="white"/>
<path d="M399.433 101.682H399.064L381.939 84.5565C381.514 84.8773 381.079 85.192 380.639 85.4943C380.565 85.55 380.492 85.5974 380.417 85.649C379.975 85.9585 379.527 86.2514 379.069 86.5362C378.992 86.5878 378.914 86.6394 378.837 86.6796C378.379 86.9715 377.908 87.249 377.437 87.5142C377.355 87.5627 377.278 87.607 377.197 87.6514C376.715 87.921 376.229 88.1792 375.738 88.4261C375.656 88.4705 375.579 88.5118 375.494 88.552C374.995 88.8037 374.489 89.0445 373.976 89.2742C373.89 89.3113 373.806 89.3515 373.717 89.3887C368.708 91.5789 363.31 92.7399 357.843 92.8027C352.376 92.8655 346.953 91.8288 341.895 89.7542C336.837 87.6795 332.248 84.6093 328.4 80.726C324.552 76.8427 321.523 72.2254 319.495 67.1487H319.872C321.891 72.1539 324.892 76.7041 328.698 80.5314C332.503 84.3586 337.037 87.3853 342.03 89.4332C347.024 91.481 352.377 92.5085 357.774 92.4552C363.171 92.4018 368.503 91.2687 373.455 89.1225C373.544 89.0885 373.629 89.0482 373.717 89.008C374.233 88.7821 374.74 88.5458 375.243 88.2951C375.327 88.2539 375.405 88.2136 375.486 88.1693C375.98 87.9258 376.468 87.6669 376.948 87.3976C377.029 87.3564 377.111 87.3089 377.188 87.2604C377.665 86.9984 378.134 86.7233 378.595 86.4351C378.673 86.3876 378.747 86.3433 378.824 86.2876C379.283 86.007 379.733 85.713 380.176 85.4055C380.25 85.357 380.323 85.3024 380.398 85.2498C380.837 84.9475 381.269 84.637 381.698 84.312C381.768 84.2604 381.838 84.2088 381.904 84.1531L382.147 84.3966L383.222 85.4674L383.463 85.7078L384.541 86.79L385.859 88.1084L386.085 88.3302L387.175 89.4227L387.399 89.6445L388.489 90.7339L388.706 90.9557L399.433 101.682Z" fill="white"/>
<path d="M416.375 101.682H415.998L396.913 82.5963L396.691 82.3745L395.595 81.2779L395.373 81.0561L394.054 79.7377L392.965 78.6483L392.732 78.4151C392.789 78.3458 392.842 78.2731 392.891 78.1975C393.213 77.7693 393.522 77.3371 393.819 76.8945L393.975 76.6727C394.277 76.226 394.569 75.7711 394.854 75.313C394.901 75.2398 394.95 75.1655 394.997 75.0881C395.282 74.6232 395.559 74.1528 395.829 73.6768C395.873 73.5964 395.921 73.519 395.962 73.4375C397.089 71.4193 398.055 69.3151 398.85 67.1445C398.898 67.0228 398.942 66.9011 398.984 66.7752C400.008 63.9044 400.729 60.9338 401.132 57.9124C401.151 57.7897 401.165 57.6648 401.181 57.5431C401.243 57.051 401.299 56.56 401.34 56.0658C401.354 55.943 401.366 55.8213 401.373 55.6965C401.417 55.2085 401.446 54.7133 401.476 54.2192C401.484 54.0974 401.487 53.9747 401.487 53.8498C401.513 53.3619 401.524 52.8667 401.528 52.3725H312.902C312.902 52.2508 312.902 52.125 312.902 52.0032C312.902 51.508 312.909 51.017 312.928 50.5259C312.928 50.4 312.935 50.2783 312.942 50.1566C312.961 49.6614 312.986 49.1703 313.024 48.6793C313.035 48.5534 313.042 48.4317 313.057 48.31C313.094 47.8148 313.142 47.3237 313.205 46.8327C313.215 46.7109 313.231 46.5851 313.245 46.4633C313.637 43.3158 314.369 40.22 315.428 37.2302C315.469 37.1085 315.513 36.9826 315.557 36.8609C318.67 28.2659 324.354 20.8384 331.838 15.589C339.322 10.3397 348.241 7.52344 357.382 7.52344C366.523 7.52344 375.442 10.3397 382.926 15.589C390.409 20.8384 396.094 28.2659 399.206 36.8609H398.86C395.755 28.355 390.111 21.0092 382.692 15.8189C375.272 10.6286 366.436 7.8448 357.382 7.8448C348.327 7.8448 339.491 10.6286 332.072 15.8189C324.653 21.0092 319.008 28.355 315.904 36.8609C315.856 36.9826 315.812 37.1043 315.772 37.2302C314.704 40.2182 313.967 43.3145 313.574 46.4633C313.556 46.5892 313.54 46.7109 313.53 46.8327C313.47 47.3237 313.427 47.8148 313.382 48.31C313.371 48.4317 313.36 48.5534 313.353 48.6793C313.316 49.1703 313.286 49.6614 313.271 50.1566C313.26 50.2783 313.257 50.4 313.257 50.5259C313.234 51.017 313.227 51.508 313.227 52.0032H401.862C401.862 52.125 401.862 52.2508 401.862 52.3725C401.862 52.8667 401.846 53.3588 401.825 53.8498C401.825 53.9716 401.817 54.0974 401.809 54.2192C401.788 54.7133 401.755 55.2044 401.706 55.6965C401.699 55.8213 401.687 55.943 401.676 56.0658C401.632 56.56 401.58 57.051 401.517 57.5431C401.503 57.6648 401.488 57.7897 401.466 57.9124C401.068 60.9332 400.353 63.9037 399.334 66.7752C399.294 66.8969 399.25 67.0228 399.205 67.1445C398.388 69.3978 397.387 71.5805 396.214 73.6706C396.17 73.7521 396.126 73.8326 396.077 73.9141C395.811 74.3866 395.535 74.856 395.243 75.3182C395.198 75.3955 395.154 75.4688 395.103 75.5462C394.818 76.0042 394.523 76.4561 394.219 76.9017C394.172 76.976 394.116 77.0492 394.065 77.1235C393.766 77.563 393.455 77.9994 393.136 78.4275L394.458 79.749L395.548 80.8384L395.769 81.0602L416.375 101.682Z" fill="white"/>
<path d="M411.152 101.682H410.775L394.536 85.4397L394.319 85.222L393.229 84.1357L393.007 83.9139L391.925 82.8286L391.7 82.6027L390.389 81.2925L389.318 80.2207L388.014 78.9177L387.767 78.6732C387.83 78.6072 387.889 78.5412 387.944 78.4741C388.292 78.0718 388.631 77.6653 388.956 77.2516C389.019 77.1814 389.075 77.1154 389.126 77.0453C389.458 76.6275 389.776 76.2035 390.09 75.7743C390.141 75.7011 390.193 75.6309 390.249 75.5566C390.558 75.1213 390.868 74.6818 391.158 74.231C391.211 74.1575 391.26 74.081 391.305 74.0019C391.604 73.548 391.891 73.089 392.165 72.6247C392.214 72.5463 392.258 72.4689 392.303 72.3916C392.583 71.9191 392.848 71.4425 393.103 70.9555C393.152 70.8758 393.195 70.7931 393.233 70.7079C393.845 69.5519 394.396 68.3646 394.884 67.1509C394.935 67.0291 394.987 66.9074 395.036 66.7815C396.159 63.9275 396.951 60.9537 397.396 57.9188C397.414 57.796 397.432 57.6743 397.447 57.5494C397.518 57.0615 397.576 56.5663 397.625 56.0721H309.377C309.365 55.9494 309.354 55.8245 309.347 55.7028C309.311 55.2107 309.281 54.7197 309.258 54.2255C309.251 54.1038 309.248 53.981 309.244 53.8562C309.222 53.3682 309.211 52.873 309.211 52.3789C309.211 52.2571 309.211 52.1313 309.211 52.0096C309.211 51.5144 309.218 51.0233 309.233 50.5322C309.233 50.4064 309.241 50.2847 309.248 50.1629C309.266 49.6678 309.292 49.1726 309.325 48.6856C309.332 48.5598 309.341 48.438 309.351 48.3163C309.388 47.8211 309.432 47.3301 309.484 46.839C309.5 46.7173 309.514 46.5955 309.525 46.4697C309.888 43.3338 310.559 40.2413 311.527 37.2365L311.648 36.8672C314.833 27.2552 320.965 18.891 329.174 12.9628C337.383 7.03461 347.251 3.84387 357.377 3.84387C367.502 3.84387 377.371 7.03461 385.58 12.9628C393.789 18.891 399.921 27.2552 403.105 36.8672H402.776C399.598 27.3405 393.503 19.0549 385.356 13.1837C377.208 7.31255 367.42 4.15327 357.377 4.15327C347.334 4.15327 337.546 7.31255 329.398 13.1837C321.25 19.0549 315.156 27.3405 311.978 36.8672C311.936 36.989 311.896 37.1107 311.855 37.2365C310.877 40.2393 310.203 43.3325 309.842 46.4697C309.825 46.5955 309.813 46.7173 309.802 46.839C309.746 47.3301 309.699 47.8211 309.662 48.3163C309.654 48.438 309.643 48.5598 309.636 48.6856C309.603 49.1767 309.577 49.6678 309.558 50.1629C309.551 50.2847 309.547 50.4105 309.543 50.5322C309.528 51.0233 309.521 51.5144 309.521 52.0096C309.521 52.1313 309.521 52.2571 309.521 52.3789C309.521 52.8734 309.532 53.3658 309.554 53.8562C309.554 53.9779 309.561 54.1038 309.569 54.2255C309.591 54.7197 309.62 55.2107 309.657 55.7028H398C397.993 55.8245 397.982 55.9494 397.972 56.0721C397.92 56.5663 397.868 57.0615 397.794 57.5494C397.779 57.6743 397.761 57.796 397.738 57.9188C397.301 60.9524 396.518 63.926 395.405 66.7815C395.356 66.9033 395.309 67.0291 395.256 67.1509C394.736 68.4537 394.147 69.7279 393.491 70.9679C393.451 71.0494 393.407 71.1309 393.362 71.2124C393.103 71.6962 392.838 72.1687 392.553 72.6423C392.513 72.7196 392.465 72.797 392.417 72.8744C392.14 73.3396 391.855 73.8028 391.556 74.2516C391.508 74.33 391.46 74.4074 391.408 74.4806C391.113 74.9273 390.81 75.3668 390.492 75.7991C390.443 75.8748 390.39 75.9479 390.333 76.0178C390.024 76.449 389.702 76.8699 389.37 77.2877C389.318 77.3578 389.267 77.428 389.204 77.494C388.875 77.9067 388.537 78.3142 388.189 78.7165L389.252 79.7801L389.492 80.0205L391.874 82.4026L392.099 82.6274L393.185 83.7096L393.407 83.9345L394.492 85.0208L394.714 85.2385L411.152 101.682Z" fill="white"/>
<path d="M418.985 101.682H418.608L398.03 81.1035L397.808 80.8817L396.708 79.781L396.483 79.5561L395.382 78.4553L395.157 78.2304C395.205 78.1561 395.26 78.0829 395.312 78.0086C395.615 77.565 395.91 77.1152 396.202 76.6603C396.247 76.587 396.298 76.5097 396.343 76.4313C396.635 75.9742 396.915 75.509 397.189 75.0396C397.236 74.9581 397.28 74.8766 397.325 74.7992C398.722 72.363 399.89 69.8025 400.815 67.1507C400.859 67.0289 400.903 66.9031 400.944 66.7813C401.923 63.9031 402.612 60.934 403.001 57.9186C403.016 57.7958 403.031 57.6741 403.045 57.5492C403.105 57.0571 403.157 56.5661 403.201 56.0719C403.212 55.9461 403.223 55.8244 403.23 55.7026C403.271 55.2105 403.3 54.7195 403.326 54.2253C403.326 54.1036 403.337 53.9777 403.341 53.856C403.36 53.3649 403.374 52.8728 403.374 52.3787C403.374 52.257 403.374 52.1311 403.374 52.0094C403.374 51.5142 403.366 51.0231 403.351 50.5321H314.759C314.759 50.4103 314.759 50.2845 314.774 50.1627C314.789 49.6676 314.819 49.1765 314.859 48.6854C314.866 48.5637 314.877 48.4378 314.892 48.3161C314.929 47.8209 314.981 47.3257 315.044 46.8388C315.058 46.713 315.073 46.5912 315.088 46.4695C315.499 43.3158 316.265 40.2185 317.37 37.2363C317.414 37.1105 317.459 36.9888 317.51 36.867C320.581 28.7815 326.038 21.8211 333.158 16.9096C340.277 11.9981 348.721 9.3678 357.37 9.3678C366.02 9.3678 374.464 11.9981 381.583 16.9096C388.703 21.8211 394.16 28.7815 397.231 36.867H396.869C393.807 28.8741 388.392 21.9982 381.34 17.1477C374.288 12.2972 365.93 9.70045 357.37 9.70045C348.811 9.70045 340.453 12.2972 333.401 17.1477C326.349 21.9982 320.934 28.8741 317.872 36.867C317.821 36.9888 317.776 37.1146 317.732 37.2363C316.617 40.2167 315.845 43.3144 315.431 46.4695C315.413 46.5912 315.398 46.7171 315.383 46.8388C315.324 47.3299 315.273 47.8209 315.232 48.3161C315.217 48.4378 315.21 48.5637 315.198 48.6854C315.162 49.1765 315.132 49.6676 315.114 50.1627H403.657C403.657 50.2845 403.667 50.4062 403.671 50.5321C403.686 51.0231 403.693 51.5142 403.693 52.0094C403.693 52.1311 403.693 52.257 403.693 52.3787C403.693 52.8728 403.678 53.3649 403.66 53.856C403.66 53.9808 403.649 54.1036 403.644 54.2253C403.619 54.7195 403.59 55.2105 403.549 55.7026C403.541 55.8244 403.53 55.9492 403.52 56.0719C403.475 56.5661 403.427 57.0613 403.364 57.5492C403.354 57.6741 403.338 57.7958 403.32 57.9186C402.937 60.9334 402.254 63.9024 401.281 66.7813C401.241 66.9031 401.196 67.0258 401.156 67.1507C400.207 69.8849 399.002 72.5237 397.559 75.0324C397.514 75.1128 397.466 75.1912 397.422 75.2686C397.148 75.7411 396.865 76.2063 396.576 76.6644C396.528 76.7387 396.48 76.8161 396.432 76.8893C396.144 77.3443 395.845 77.7909 395.539 78.2304L418.985 101.682Z" fill="white"/>
<path d="M421.596 101.682H421.224L397.539 78.0004L397.687 77.7755C397.979 77.3216 398.263 76.8594 398.54 76.3941C398.585 76.3167 398.632 76.2352 398.68 76.1579C400.353 73.3066 401.724 70.289 402.772 67.1538C402.813 67.032 402.853 66.9103 402.895 66.7844C403.834 63.9001 404.494 60.9322 404.866 57.9217C404.882 57.7989 404.896 57.6741 404.907 57.5523C404.966 57.0602 405.011 56.5692 405.058 56.075C405.069 55.9523 405.077 55.8305 405.088 55.7057C405.125 55.2136 405.155 54.7226 405.177 54.2284C405.184 54.1067 405.188 53.9808 405.191 53.8591C405.214 53.368 405.225 52.8756 405.225 52.3818C405.225 52.2601 405.225 52.1342 405.225 52.0125C405.225 51.5173 405.218 51.0262 405.203 50.5352C405.203 50.4134 405.195 50.2876 405.188 50.1658C405.169 49.6706 405.144 49.1796 405.111 48.6885H316.712C316.719 48.5668 316.73 48.4409 316.745 48.3192C316.785 47.824 316.837 47.3288 316.9 46.8419C316.918 46.716 316.933 46.5943 316.951 46.4726C317.38 43.3113 318.182 40.212 319.341 37.2394C319.389 37.1177 319.437 36.9918 319.489 36.8701C322.516 29.2972 327.743 22.8053 334.496 18.2322C341.249 13.6592 349.217 11.215 357.373 11.215C365.528 11.215 373.497 13.6592 380.249 18.2322C387.002 22.8053 392.229 29.2972 395.256 36.8701H394.88C391.863 29.3936 386.68 22.9894 379.997 18.4797C373.314 13.9699 365.435 11.5604 357.373 11.5604C349.31 11.5604 341.432 13.9699 334.749 18.4797C328.066 22.9894 322.883 29.3936 319.866 36.8701C319.814 36.9918 319.762 37.1136 319.714 37.2394C318.544 40.2097 317.734 43.3095 317.302 46.4726C317.283 46.5943 317.266 46.716 317.25 46.8419C317.187 47.3288 317.133 47.824 317.092 48.3192H405.399C405.411 48.4409 405.418 48.5627 405.425 48.6885C405.458 49.1755 405.484 49.6706 405.503 50.1658C405.51 50.2876 405.514 50.4093 405.517 50.5352C405.533 51.0262 405.54 51.5173 405.54 52.0125C405.54 52.1342 405.54 52.2601 405.54 52.3818C405.54 52.8759 405.529 53.3711 405.507 53.8591C405.507 53.9839 405.5 54.1067 405.492 54.2284C405.47 54.7226 405.441 55.2136 405.404 55.7057C405.396 55.8275 405.385 55.9523 405.374 56.075C405.333 56.5692 405.285 57.0602 405.23 57.5523C405.215 57.6741 405.2 57.7958 405.182 57.9217C404.814 60.9314 404.16 63.8991 403.228 66.7844L403.106 67.1538C402.039 70.3697 400.634 73.4633 398.915 76.3828C398.866 76.4612 398.819 76.5417 398.774 76.619C398.494 77.0853 398.209 77.5475 397.914 78.0004L399.247 79.3343L421.596 101.682Z" fill="white"/>
<path d="M424.215 101.682H423.839L400.117 77.9613L399.888 77.7353C399.937 77.658 399.984 77.5806 400.033 77.4991C401.989 74.2419 403.561 70.7694 404.719 67.1507C404.76 67.029 404.8 66.9073 404.837 66.7814C405.739 63.8916 406.372 60.9248 406.728 57.9186C406.742 57.7959 406.758 57.671 406.772 57.5493C406.828 57.0572 406.876 56.5662 406.917 56.072C406.924 55.9493 406.934 55.8244 406.943 55.7027C406.979 55.2106 407.009 54.7195 407.027 54.2254C407.034 54.1036 407.042 53.9809 407.046 53.8561C407.064 53.365 407.074 52.8726 407.075 52.3788C407.075 52.257 407.075 52.1312 407.075 52.0094C407.075 51.5142 407.067 51.0232 407.053 50.5321L407.042 50.1628C407.023 49.6676 406.997 49.1766 406.964 48.6855C406.957 48.5638 406.949 48.4379 406.938 48.3162C406.901 47.821 406.86 47.3299 406.805 46.8389H318.76C318.776 46.7172 318.795 46.5913 318.813 46.4696C319.264 43.2992 320.108 40.1975 321.327 37.2364C321.38 37.1147 321.43 36.9888 321.479 36.8671C324.457 29.8081 329.451 23.7839 335.835 19.5483C342.219 15.3126 349.711 13.0535 357.373 13.0535C365.034 13.0535 372.526 15.3126 378.91 19.5483C385.294 23.7839 390.288 29.8081 393.266 36.8671H392.874C389.907 29.9078 384.96 23.974 378.648 19.8034C372.336 15.6328 364.938 13.4093 357.373 13.4093C349.807 13.4093 342.409 15.6328 336.097 19.8034C329.785 23.974 324.838 29.9078 321.871 36.8671C321.815 36.9888 321.768 37.1106 321.715 37.2364C320.479 40.1938 319.624 43.2964 319.171 46.4696H407.082C407.093 46.5913 407.108 46.7172 407.119 46.8389C407.171 47.3299 407.215 47.821 407.248 48.3162C407.259 48.4379 407.267 48.5596 407.274 48.6855C407.308 49.1766 407.334 49.6676 407.352 50.1628L407.362 50.5321C407.378 51.0232 407.385 51.5142 407.385 52.0094C407.385 52.1312 407.385 52.257 407.385 52.3788C407.385 52.8729 407.374 53.365 407.356 53.8561C407.356 53.9778 407.345 54.1036 407.338 54.2254C407.319 54.7195 407.289 55.2106 407.252 55.7027C407.245 55.8244 407.234 55.9462 407.223 56.072C407.186 56.5662 407.138 57.0572 407.086 57.5493C407.072 57.671 407.057 57.7959 407.042 57.9186C406.689 60.9244 406.059 63.8912 405.162 66.7814C405.125 66.9031 405.085 67.029 405.047 67.1507C403.867 70.8507 402.26 74.4004 400.258 77.7281L424.215 101.682Z" fill="white"/>
<path d="M394.215 101.682H393.839L384.17 92.0131L383.949 91.7913L382.607 90.4502L381.507 89.3495C381.053 89.6452 380.594 89.9309 380.129 90.2067C380.052 90.2552 379.971 90.3027 379.893 90.347C379.424 90.6276 378.947 90.8938 378.463 91.1559C378.383 91.2002 378.301 91.2446 378.22 91.2817C377.733 91.5468 377.238 91.7975 376.739 92.0389C376.654 92.0833 376.569 92.1235 376.485 92.1607C370.884 94.8299 364.786 96.2974 358.584 96.4687C352.382 96.64 346.212 95.5114 340.472 93.1554C334.732 90.7994 329.549 87.2681 325.256 82.7888C320.963 78.3095 317.654 72.9812 315.544 67.1466H315.891C317.994 72.9146 321.278 78.1803 325.532 82.6071C329.786 87.0339 334.917 90.5244 340.597 92.8556C346.277 95.1867 352.381 96.3072 358.518 96.1455C364.656 95.9837 370.692 94.5433 376.241 91.9162C376.327 91.8801 376.411 91.8388 376.496 91.7986C376.995 91.5582 377.494 91.3075 377.981 91.0413C378.062 91.0042 378.144 90.9598 378.225 90.9155C378.709 90.6576 379.189 90.3873 379.658 90.1108C379.738 90.0623 379.817 90.0179 379.894 89.9705C380.36 89.693 380.823 89.4093 381.271 89.1132C381.349 89.0658 381.426 89.0173 381.501 88.9657L381.734 89.1988L394.215 101.682Z" fill="white"/>
<path d="M391.604 101.682H391.228L383.923 94.3767L381.24 91.6944C380.775 91.975 380.303 92.2525 379.826 92.5197L379.586 92.6528C379.102 92.9179 378.615 93.1769 378.12 93.4244C378.034 93.4647 377.954 93.5091 377.868 93.5503C371.974 96.4594 365.529 98.0809 358.96 98.3072C352.392 98.5334 345.85 97.3592 339.77 94.8626C333.691 92.3659 328.212 88.604 323.698 83.8268C319.184 79.0496 315.738 73.3664 313.59 67.1549H313.929C316.07 73.3016 319.492 78.9238 323.967 83.6499C328.443 88.376 333.87 92.0983 339.891 94.5709C345.912 97.0434 352.39 98.2098 358.895 97.993C365.4 97.7761 371.786 96.181 377.629 93.313C377.713 93.2728 377.798 93.2326 377.879 93.1882C378.374 92.9406 378.865 92.6858 379.349 92.4196C379.431 92.3794 379.508 92.335 379.59 92.2866C380.065 92.0245 380.542 91.7511 381.007 91.4674C381.089 91.4231 381.166 91.3746 381.243 91.3271L381.472 91.5551L382.588 92.6714L382.817 92.9004L383.929 94.0114L391.604 101.682Z" fill="white"/>
<path d="M388.989 101.682H388.624L382.298 95.3557L382.073 95.1339L380.947 94.0073C380.466 94.2766 379.983 94.5396 379.491 94.7903C379.411 94.8347 379.329 94.879 379.244 94.9193C373.062 98.0718 366.27 99.8508 359.336 100.134C352.401 100.418 345.488 99.1994 339.068 96.5622C332.648 93.925 326.874 89.9314 322.142 84.855C317.409 79.7786 313.83 73.7393 311.649 67.1508H311.978C314.153 73.6762 317.71 79.6559 322.406 84.6822C327.101 89.7084 332.826 93.6631 339.188 96.2767C345.551 98.8902 352.402 100.101 359.275 99.8267C366.148 99.5524 372.881 97.7994 379.015 94.6871C379.096 94.6459 379.182 94.6015 379.262 94.5572C379.754 94.3065 380.238 94.0413 380.718 93.7752C380.799 93.7308 380.877 93.6865 380.954 93.6421L382.309 94.9977L382.534 95.2226L388.989 101.682Z" fill="white"/>
<path d="M386.378 101.682H386.006L380.61 96.2862C375.195 99.1436 369.297 100.973 363.215 101.682C351.673 103.036 340.02 100.33 330.256 94.029C320.492 87.7281 313.225 78.225 309.704 67.1508H310.033C313.168 76.9049 319.235 85.4547 327.408 91.6342C335.58 97.8138 345.459 101.322 355.698 101.682C356.255 101.7 356.813 101.712 357.375 101.712C357.959 101.712 358.538 101.7 359.118 101.682C366.539 101.428 373.807 99.5048 380.381 96.0541C380.462 96.0138 380.543 95.9695 380.625 95.9251L386.378 101.682Z" fill="white"/>
<path d="M396.827 101.682H396.45L385.485 90.7164L384.388 89.6198L384.159 89.3907L383.066 88.2982L381.744 86.9757C381.305 87.2852 380.861 87.5854 380.41 87.8773C380.333 87.9248 380.255 87.9805 380.178 88.0207C379.72 88.3168 379.258 88.5974 378.79 88.8667C378.712 88.9182 378.631 88.9626 378.553 89.007C378.077 89.2804 377.596 89.5465 377.109 89.7972C377.027 89.8416 376.946 89.8859 376.866 89.9262C376.37 90.1851 375.868 90.4286 375.362 90.6617C375.277 90.7061 375.196 90.7463 375.108 90.7834C369.801 93.2122 364.052 94.5254 358.217 94.6416C352.382 94.7577 346.585 93.6745 341.186 91.4589C335.787 89.2433 330.9 85.9426 326.829 81.7612C322.757 77.5799 319.588 72.607 317.517 67.1508H317.879C319.943 72.5373 323.088 77.4445 327.119 81.5709C331.15 85.6972 335.982 88.9554 341.319 91.1451C346.656 93.3347 352.384 94.4096 358.152 94.3036C363.919 94.1976 369.604 92.913 374.857 90.5286C374.942 90.4915 375.026 90.4513 375.112 90.41C375.621 90.1779 376.121 89.9303 376.615 89.6755C376.696 89.6352 376.778 89.594 376.859 89.5496C377.346 89.2989 377.83 89.0338 378.304 88.7594C378.385 88.715 378.466 88.6707 378.544 88.6232C379.012 88.3498 379.472 88.0692 379.933 87.7773C380.01 87.7329 380.087 87.6844 380.165 87.6328C380.616 87.3454 381.063 87.0462 381.506 86.7353C381.58 86.6879 381.653 86.6321 381.728 86.5806L396.827 101.682Z" fill="white"/>
<path d="M402.049 101.682H401.672L389.713 89.723L388.624 88.6263L388.402 88.4087L387.317 87.3193L387.091 87.0975L386.006 86.0112L385.777 85.7821L384.702 84.7082L384.465 84.4678L383.395 83.4001L382.087 82.093C381.675 82.4328 381.257 82.7615 380.835 83.0793C380.769 83.135 380.699 83.1824 380.629 83.2412C380.2 83.5589 379.764 83.8685 379.321 84.1697C379.247 84.2223 379.173 84.2729 379.096 84.3214C378.649 84.6247 378.198 84.9166 377.737 85.1972C377.659 85.2488 377.581 85.2931 377.504 85.3406C377.039 85.6253 376.566 85.8946 376.09 86.1659L375.846 86.299C375.358 86.561 374.863 86.8148 374.365 87.0562C374.28 87.1006 374.203 87.1408 374.117 87.1779C373.61 87.4214 373.098 87.6542 372.58 87.8763C372.491 87.9125 372.407 87.9496 372.318 87.9867C362.811 91.9323 352.129 91.9553 342.606 88.0507C333.082 84.1461 325.49 76.6313 321.489 67.1477H321.881C325.859 76.4831 333.353 83.8759 342.743 87.7248C352.132 91.5737 362.659 91.5688 372.045 87.7113V87.7113C372.136 87.6783 372.222 87.637 372.311 87.6009C372.826 87.3822 373.342 87.1532 373.858 86.9097C373.944 86.8695 374.025 86.8282 374.11 86.7921C374.608 86.5476 375.103 86.2969 375.59 86.0349L375.835 85.9018C376.314 85.6398 376.787 85.3695 377.252 85.0858C377.331 85.0414 377.411 84.9929 377.49 84.9455C377.947 84.6607 378.401 84.3729 378.848 84.0696C378.921 84.0222 379 83.9664 379.073 83.918C379.517 83.616 379.953 83.3065 380.381 82.9895C380.454 82.9348 380.525 82.8863 380.587 82.8306C381.011 82.5101 381.428 82.1803 381.839 81.8413C381.911 81.7891 381.98 81.7322 382.045 81.6711L382.3 81.9259L383.363 82.9874L383.606 83.235L384.674 84.3017L384.914 84.538L385.985 85.6129L386.217 85.842L387.299 86.9273L387.525 87.1491L388.611 88.2385L388.832 88.4571L389.922 89.5466L390.139 89.7673L402.049 101.682Z" fill="white"/>
</g>
</svg>
