<svg width="165" height="150" viewBox="0 0 165 150" fill="none" xmlns="http://www.w3.org/2000/svg">
<path d="M12.2932 149.994C10.684 150.007 9.08183 149.78 7.53946 149.321C6.14037 148.91 4.83358 148.233 3.69042 147.327C2.58391 146.438 1.70069 145.303 1.11134 144.011C0.462582 142.537 0.145632 140.937 0.182871 139.327V138.307H8.67012C8.66869 138.864 8.73802 139.419 8.87644 139.958C9.00517 140.475 9.21663 140.969 9.50266 141.419C9.77704 141.849 10.1506 142.207 10.5921 142.463C11.0802 142.736 11.633 142.872 12.1921 142.857C12.6208 142.863 13.0465 142.784 13.4445 142.624C13.8425 142.465 14.2051 142.229 14.5112 141.928C14.8282 141.633 15.0788 141.273 15.2467 140.873C15.4145 140.473 15.4958 140.043 15.4851 139.609C15.502 139.128 15.3985 138.649 15.1839 138.218C14.9795 137.843 14.7037 137.512 14.372 137.244C14.0172 136.956 13.6276 136.713 13.2124 136.522C12.7791 136.322 12.3321 136.128 11.8713 135.942C11.3451 135.696 10.8348 135.479 10.3403 135.293C9.84584 135.107 9.35134 134.905 8.85685 134.689C7.79058 134.237 6.75259 133.72 5.74853 133.142C4.79595 132.599 3.92229 131.927 3.15191 131.147C2.4066 130.386 1.80199 129.499 1.36614 128.527C0.898811 127.445 0.669439 126.274 0.693526 125.095C0.666008 123.631 1.01748 122.185 1.71381 120.898C2.38194 119.691 3.29906 118.64 4.40432 117.814C5.54022 116.967 6.80981 116.317 8.16049 115.889C11.1754 114.904 14.4395 115.003 17.3895 116.167C18.9767 116.746 20.3949 117.71 21.516 118.974C22.2728 119.906 22.8402 120.977 23.1863 122.126C23.4839 123.279 23.6548 124.461 23.6959 125.651H15.2179C15.1647 124.808 14.8931 123.993 14.4297 123.286C14.1579 122.955 13.8082 122.697 13.412 122.535C13.0159 122.373 12.5857 122.312 12.1601 122.357C11.4025 122.353 10.6661 122.608 10.0731 123.079C9.77496 123.302 9.53487 123.593 9.37323 123.928C9.2116 124.263 9.13319 124.633 9.14468 125.004C9.13109 125.509 9.25979 126.008 9.51607 126.443C9.83553 126.876 10.2475 127.232 10.722 127.486C11.3094 127.842 11.9432 128.19 12.6233 128.53C13.3035 128.869 13.9758 129.186 14.6402 129.48C15.3059 129.774 15.8083 129.998 16.1474 130.152C17.212 130.62 18.2478 131.15 19.2495 131.74C20.165 132.278 21.0005 132.941 21.7317 133.711C22.4348 134.463 22.9942 135.337 23.3823 136.291C23.8067 137.392 24.0114 138.566 23.9847 139.746C24.0238 141.316 23.7152 142.876 23.081 144.314C22.5124 145.551 21.6721 146.644 20.6226 147.512C19.5372 148.387 18.2816 149.027 16.9356 149.39C15.4233 149.804 13.8611 150.007 12.2932 149.994Z" fill="#944EE7"/>
<path d="M43.3198 149.994C38.7183 150.012 34.286 148.26 30.9402 145.101C29.3233 143.559 28.0234 141.715 27.1138 139.674C26.1636 137.553 25.6812 135.251 25.6995 132.926C25.6866 130.482 26.1419 128.058 27.0406 125.784C27.5627 124.437 28.2988 123.183 29.2204 122.07C30.8364 119.879 32.9606 118.112 35.4102 116.923C37.8985 115.759 40.6175 115.173 43.3642 115.207C45.7245 115.191 48.0648 115.64 50.2514 116.53C52.3479 117.377 54.2612 118.62 55.8861 120.193C57.5025 121.766 58.7947 123.642 59.6898 125.712C60.6076 127.892 61.0804 130.234 61.0804 132.599C61.0804 134.965 60.6076 137.306 59.6898 139.487C58.7947 141.557 57.5025 143.432 55.8861 145.005C54.2554 146.581 52.334 147.826 50.2287 148.669C48.0341 149.557 45.6871 150.007 43.3198 149.994ZM43.3662 122.677C42.0787 122.661 40.8038 122.931 39.6327 123.466C38.5359 123.968 37.5564 124.695 36.7576 125.599C35.9595 126.512 35.3382 127.566 34.9254 128.707C34.4875 129.91 34.2677 131.182 34.2765 132.462C34.2677 133.773 34.4872 135.076 34.9254 136.312C35.3325 137.475 35.9634 138.546 36.7823 139.466C37.6007 140.374 38.5945 141.108 39.7039 141.622C40.8947 142.174 42.1942 142.451 43.5065 142.434C44.7741 142.448 46.0279 142.17 47.1709 141.622C48.261 141.099 49.2317 140.358 50.0223 139.443C50.8215 138.513 51.4425 137.444 51.8545 136.289C52.2862 135.108 52.5062 133.86 52.5044 132.602C52.5089 131.329 52.2889 130.066 51.8545 128.869C51.4363 127.705 50.8067 126.627 49.9976 125.691C49.1934 124.763 48.2052 124.013 47.0956 123.487C45.9296 122.939 44.6546 122.662 43.3662 122.677Z" fill="#944EE7"/>
<path d="M63.123 115.21H71.9817V142.16H82.3238V150H63.123V115.21Z" fill="#944EE7"/>
<path d="M101.895 149.994C97.2932 150.012 92.861 148.26 89.5151 145.101C87.8988 143.558 86.5994 141.715 85.6898 139.674C84.7387 137.553 84.2559 135.251 84.2744 132.926C84.2632 130.482 84.7202 128.057 85.6207 125.784C86.1421 124.437 86.8778 123.183 87.7995 122.07C89.4158 119.879 91.5399 118.112 93.9893 116.923C96.4775 115.759 99.1965 115.172 101.943 115.207C104.303 115.191 106.643 115.64 108.829 116.53C110.926 117.377 112.84 118.621 114.465 120.193C116.081 121.766 117.373 123.642 118.268 125.712C119.186 127.892 119.659 130.234 119.659 132.599C119.659 134.965 119.186 137.307 118.268 139.487C117.373 141.557 116.081 143.432 114.465 145.005C112.834 146.581 110.912 147.826 108.807 148.669C106.611 149.557 104.263 150.007 101.895 149.994ZM101.941 122.677C100.654 122.661 99.3787 122.931 98.2077 123.466C97.1106 123.968 96.1312 124.695 95.3325 125.599C94.5337 126.512 93.9123 127.566 93.5003 128.707C93.0621 129.91 92.842 131.182 92.8504 132.462C92.8419 133.774 93.0619 135.076 93.5003 136.312C93.907 137.475 94.5379 138.546 95.3573 139.466C96.176 140.374 97.1702 141.108 98.2799 141.622C99.4704 142.174 100.77 142.451 102.081 142.434C103.349 142.448 104.603 142.17 105.746 141.622C106.836 141.099 107.807 140.358 108.598 139.443C109.397 138.513 110.018 137.444 110.431 136.29C110.861 135.108 111.081 133.86 111.079 132.602C111.084 131.33 110.864 130.066 110.431 128.869C110.012 127.705 109.383 126.627 108.574 125.692C107.77 124.765 106.783 124.015 105.675 123.489C104.508 122.94 103.231 122.662 101.941 122.677Z" fill="#944EE7"/>
<path d="M164.82 149.994H155.174L153.272 147.675L148.356 141.599C149.541 140.966 150.577 140.087 151.394 139.02C152.213 137.953 152.804 136.73 153.133 135.426C153.379 134.535 153.504 133.615 153.504 132.69C153.507 131.41 153.287 130.138 152.855 128.933C152.444 127.766 151.814 126.687 150.998 125.756C150.187 124.838 149.202 124.09 148.1 123.553C146.937 122.989 145.659 122.703 144.367 122.718C143.079 122.703 141.804 122.972 140.633 123.508C139.531 124.013 138.545 124.738 137.734 125.64C136.918 126.557 136.281 127.619 135.857 128.771C135.404 129.979 135.177 131.26 135.184 132.551C135.178 133.849 135.406 135.137 135.857 136.353C136.277 137.514 136.914 138.585 137.734 139.507C138.553 140.415 139.547 141.149 140.656 141.663C141.847 142.215 143.147 142.492 144.46 142.475C144.973 142.473 145.485 142.427 145.99 142.337L151.045 148.733C148.907 149.586 146.622 150.012 144.32 149.985C139.725 149.997 135.297 148.256 131.941 145.116C130.323 143.588 129.015 141.761 128.091 139.736C127.124 137.627 126.634 135.331 126.654 133.011C126.641 130.567 127.097 128.142 127.995 125.869C128.255 125.194 128.573 124.542 128.946 123.921C129.318 123.293 129.728 122.689 130.175 122.112C131.81 119.934 133.941 118.178 136.39 116.988C138.703 115.917 141.209 115.329 143.756 115.258C146.304 115.187 148.839 115.635 151.208 116.575C153.3 117.419 155.212 118.654 156.842 120.215C159.14 122.488 160.764 125.353 161.533 128.492C162.303 131.632 162.188 134.923 161.202 138.001C160.665 139.647 159.883 141.202 158.883 142.615L164.82 149.994Z" fill="#944EE7"/>
<path d="M116.318 77.054C118.101 73.9237 119.551 70.6155 120.645 67.1833L120.756 66.8253C121.68 63.8472 122.328 60.7903 122.693 57.6933L122.741 57.293C122.795 56.7865 122.845 56.2789 122.885 55.7456C122.895 55.6197 122.905 55.498 122.912 55.3948C122.95 54.879 122.982 54.3735 122.998 53.9C123.007 53.7607 123.015 53.6183 123.019 53.4873C123.039 52.9715 123.05 52.466 123.049 51.9904C123.049 51.8553 123.049 51.717 123.049 51.5778C123.049 51.0619 123.042 50.5606 123.026 50.0509L123.015 49.6723C122.995 49.1627 122.968 48.6551 122.933 48.1249C122.925 47.9949 122.918 47.868 122.909 47.7844C122.874 47.2686 122.828 46.7528 122.776 46.2741L122.605 44.4729H35.1288C35.6034 42.0374 36.3255 39.6568 37.2839 37.368C37.321 37.2721 37.3602 37.1792 37.4149 37.0585C40.2609 30.3815 45.0067 24.6883 51.0623 20.6867C57.1178 16.6851 64.216 14.5517 71.4743 14.5517C78.7326 14.5517 85.8308 16.6851 91.8863 20.6867C97.9419 24.6883 102.688 30.3815 105.534 37.0585L105.946 38.0107H121.297L120.646 35.965C117.329 25.5258 110.775 16.4134 101.933 9.94745C93.0918 3.48145 82.4217 -0.00252663 71.4681 1.37478e-06C60.5144 0.00252938 49.8459 3.49143 41.0074 9.9615C32.1689 16.4316 25.6191 25.547 22.3066 35.9877L22.1952 36.3457C21.2325 39.4608 20.5669 42.6601 20.2072 45.9007L20.1721 46.2483C20.1185 46.7642 20.069 47.2696 20.0411 47.7473C20.0287 47.8855 20.0194 48.0248 20.0122 48.1527C19.9782 48.6603 19.9514 49.1668 19.9318 49.6868L19.9214 50.0571C19.906 50.5647 19.8977 51.0712 19.8977 51.5829C19.8977 51.7211 19.8977 51.8635 19.8977 51.9522C19.8977 52.4681 19.9091 52.9839 19.9276 53.4739C19.9276 53.608 19.939 53.7463 19.9462 53.8566C19.9658 54.3725 19.9968 54.8821 20.0329 55.369C20.0411 55.4959 20.0525 55.6218 20.0638 55.761C20.102 56.2769 20.1515 56.7803 20.2082 57.3085L20.4218 59.0571H107.746C107.271 61.3625 106.574 63.6167 105.667 65.7885C105.63 65.8855 105.589 65.9794 105.533 66.1063C105.21 66.8645 104.893 67.5454 104.544 68.2273C104.517 68.2851 104.489 68.3449 104.441 68.4409C104.202 68.9092 103.952 69.3693 103.676 69.8521L103.56 70.0585C103.299 70.5114 103.029 70.9539 102.735 71.4109C102.702 71.4635 102.67 71.5141 102.602 71.6173C102.324 72.0495 102.039 72.4725 101.734 72.9006C101.701 72.9481 101.668 72.9966 101.631 73.042L101.577 73.1131C101.286 73.5258 100.983 73.9323 100.678 74.3243L100.512 74.5306C100.202 74.9257 99.8773 75.3177 99.5276 75.7201L99.3677 75.9027C99.0427 76.2803 98.7074 76.6465 98.3175 77.055C98.2886 77.087 98.2555 77.121 98.2225 77.1582L97.0609 78.2651L121.614 102.823H142.103L116.318 77.054Z" fill="#944EE7"/>
<path d="M102.508 85.3978L98.8207 81.7128L98.5669 81.4539L97.2495 80.1416L96.1147 79.1017L95.0047 80.1581L94.9366 80.2118C94.5445 80.5357 94.1463 80.8504 93.712 81.1784L93.5408 81.3074C93.1281 81.6169 92.7093 81.9119 92.2667 82.2142L92.0604 82.3514C91.6302 82.6413 91.1928 82.9188 90.7492 83.1942C90.6883 83.2324 90.6233 83.2695 90.5263 83.3263C90.0817 83.5976 89.6309 83.8545 89.1728 84.1051L88.9386 84.2331C88.4775 84.4817 88.0102 84.719 87.5975 84.9212H87.5893L87.2674 85.0749C86.7877 85.3049 86.3049 85.5195 85.8231 85.7228L85.5363 85.8414C76.532 89.5398 66.4334 89.543 57.4267 85.8503C48.4201 82.1576 41.2302 75.0662 37.4136 66.1114L37.001 65.1592H21.6575L22.3074 67.2049C25.9435 78.6245 33.4393 88.4234 43.5094 94.9211C53.5795 101.419 65.5966 104.211 77.4999 102.818C83.3871 102.135 89.1101 100.431 94.4115 97.7815L99.4582 102.828H119.939L102.721 85.6082L102.508 85.3978Z" fill="#944EE7"/>
<g opacity="0.51">
<path d="M122.714 101.26H122.338L107.45 86.3698L107.233 86.1552L106.146 85.0658L104.843 83.7629L104.617 83.5369L103.539 82.4589L103.31 82.2299L102.239 81.159L101.999 80.9228L100.935 79.8592L100.695 79.6147L99.6356 78.5552L99.3808 78.3004C99.4468 78.2374 99.5098 78.1714 99.5655 78.1085C99.9348 77.7247 100.288 77.3368 100.633 76.9376C100.692 76.8716 100.751 76.8045 100.807 76.7385C101.153 76.3392 101.489 75.9297 101.819 75.516L101.985 75.3097C102.313 74.8887 102.63 74.4637 102.937 74.0274C102.993 73.9572 103.04 73.8839 103.096 73.8097C103.405 73.3743 103.705 72.9307 103.997 72.4768C104.049 72.4025 104.101 72.3251 104.145 72.2478C104.437 71.7897 104.717 71.3286 104.991 70.8551C105.035 70.7777 105.08 70.7003 105.124 70.6188C105.399 70.1422 105.661 69.6584 105.91 69.1673C105.954 69.0868 105.996 69.0012 106.036 68.9166C106.401 68.2038 106.737 67.4723 107.051 66.7337C107.107 66.612 107.154 66.4902 107.207 66.3644C108.394 63.5224 109.23 60.5461 109.696 57.5016H21.8875C21.873 57.3788 21.8576 57.254 21.8431 57.1323C21.7915 56.6402 21.74 56.1491 21.7059 55.655C21.6956 55.5291 21.6842 55.4074 21.677 55.2856C21.6399 54.7935 21.61 54.3025 21.5914 53.8083C21.5842 53.6866 21.5769 53.5607 21.5739 53.439C21.5553 52.948 21.5439 52.4559 21.5439 51.9617C21.5439 51.84 21.5439 51.7141 21.5439 51.5924C21.5439 51.0972 21.5522 50.6061 21.5666 50.1151L21.578 49.7458C21.5955 49.2506 21.6224 48.7595 21.6554 48.2684C21.6626 48.1426 21.6698 48.0209 21.6811 47.8991C21.7142 47.4039 21.7585 46.9129 21.8101 46.4218C21.8215 46.3001 21.8359 46.1742 21.8473 46.0525C22.196 42.921 22.8402 39.8295 23.7712 36.8194C23.8084 36.6976 23.8486 36.5718 23.8858 36.45C27.1016 26.3302 33.4545 17.4963 42.0248 11.2271C50.5951 4.95792 60.9381 1.57874 71.5566 1.57874C82.1751 1.57874 92.5181 4.95792 101.088 11.2271C109.659 17.4963 116.012 26.3302 119.227 36.45H118.897C115.687 26.4159 109.371 17.6612 100.862 11.4495C92.3531 5.23786 82.0903 1.89048 71.555 1.89048C61.0198 1.89048 50.757 5.23786 42.2478 11.4495C33.7386 17.6612 27.4231 26.4159 24.2128 36.45C24.1715 36.5718 24.1313 36.6935 24.0941 36.8194C23.1554 39.8282 22.5074 42.92 22.1588 46.0525C22.1443 46.1742 22.133 46.3001 22.1217 46.4218C22.067 46.9129 22.0257 47.4039 21.9896 47.8991C21.9783 48.0209 21.971 48.1467 21.9628 48.2684C21.9298 48.7595 21.904 49.2506 21.8854 49.7458L21.8751 50.1151C21.8596 50.6061 21.8524 51.0972 21.8524 51.5924C21.8524 51.7141 21.8524 51.84 21.8524 51.9617C21.8524 52.4562 21.862 52.9486 21.8813 53.439C21.8813 53.5638 21.8926 53.6866 21.8999 53.8083C21.9184 54.3025 21.9483 54.7935 21.9855 55.2856C21.9927 55.4074 22.003 55.5322 22.0113 55.655C22.0515 56.1491 22.099 56.6402 22.1547 57.1323H110.111C110.095 57.2571 110.077 57.3788 110.058 57.5016C109.594 60.5434 108.767 63.5188 107.596 66.3644C107.544 66.4861 107.493 66.612 107.444 66.7337C107.089 67.5652 106.713 68.3771 106.303 69.1787C106.262 69.2632 106.217 69.3406 106.173 69.4263C105.922 69.9132 105.657 70.397 105.383 70.8705C105.343 70.9515 105.298 71.0303 105.25 71.1068C104.977 71.5793 104.693 72.0415 104.405 72.4995C104.353 72.5769 104.302 72.6501 104.253 72.7244C103.965 73.1752 103.662 73.6219 103.352 74.0573C103.3 74.1315 103.248 74.2048 103.193 74.276C102.883 74.7072 102.565 75.1364 102.236 75.5531L102.07 75.7595C101.742 76.1773 101.406 76.5848 101.058 76.9861C100.999 77.0521 100.944 77.1192 100.885 77.1811C100.541 77.5807 100.185 77.9723 99.8172 78.3561L100.881 79.4156L101.121 79.6601L102.189 80.7237L102.425 80.9599L103.496 82.0339L103.725 82.2598L104.803 83.3379L105.029 83.5627L106.111 84.6449L106.332 84.8708L107.418 85.9561L107.636 86.1707L122.714 101.26Z" fill="white"/>
<path d="M127.943 101.26H127.563L109.922 83.6195L109.704 83.4008L108.611 82.3083L108.389 82.0865L105.764 79.461L104.685 78.3819L104.448 78.1456C104.507 78.0755 104.563 78.0053 104.614 77.9393C104.951 77.5267 105.273 77.1047 105.586 76.6766C105.641 76.6023 105.697 76.5322 105.745 76.4589C106.063 76.0267 106.369 75.5903 106.668 75.1477C106.72 75.0734 106.772 74.9961 106.816 74.9187C107.118 74.472 107.407 74.0139 107.688 73.5518C107.735 73.4785 107.784 73.4001 107.828 73.3227C108.109 72.8544 108.382 72.3809 108.644 71.9012C108.691 71.8197 108.736 71.7392 108.777 71.6577C109.641 70.0671 110.4 68.4212 111.047 66.7306C111.098 66.6089 111.143 66.483 111.187 66.3613C112.26 63.4988 113.015 60.5265 113.436 57.4985C113.455 57.3757 113.473 57.254 113.488 57.1292C113.555 56.6371 113.609 56.146 113.654 55.6519C113.669 55.5291 113.679 55.4043 113.687 55.2825C113.731 54.7904 113.768 54.2994 113.79 53.8052H25.2756C25.2756 53.6835 25.2642 53.5607 25.2601 53.4359C25.2425 52.9449 25.2271 52.4528 25.2271 51.9586C25.2271 51.8369 25.2271 51.711 25.2271 51.5893C25.2271 51.0941 25.2343 50.603 25.2487 50.112C25.2487 49.9861 25.2601 49.8644 25.2632 49.7427C25.2817 49.2475 25.3075 48.7564 25.3488 48.2654C25.3488 48.1436 25.3632 48.0178 25.3746 47.896C25.4117 47.4009 25.4592 46.9098 25.5149 46.4187C25.5262 46.2929 25.5407 46.1711 25.5592 46.0494C25.9336 42.9082 26.6316 39.814 27.6421 36.8163C27.6823 36.6945 27.7267 36.5728 27.768 36.447C30.918 27.3427 36.8278 19.447 44.675 13.8585C52.5221 8.26996 61.9163 5.26672 71.55 5.26672C81.1838 5.26672 90.5779 8.26996 98.4251 13.8585C106.272 19.447 112.182 27.3427 115.332 36.447H114.992C111.849 27.4305 105.978 19.6154 98.1941 14.0853C90.41 8.55521 81.0981 5.58417 71.5495 5.58417C62.001 5.58417 52.6891 8.55521 44.905 14.0853C37.1209 19.6154 31.2503 27.4305 28.1074 36.447C28.063 36.5687 28.0187 36.6945 27.9784 36.8163C26.959 39.8126 26.2548 42.907 25.877 46.0494C25.8615 46.1711 25.8471 46.2929 25.8326 46.4187C25.7769 46.9098 25.7295 47.4009 25.6923 47.896C25.681 48.0178 25.6738 48.1436 25.6624 48.2654C25.6294 48.7564 25.5995 49.2475 25.5809 49.7427C25.5809 49.8644 25.5706 49.9903 25.5665 50.112C25.552 50.603 25.5448 51.0941 25.5448 51.5893C25.5448 51.711 25.5448 51.8369 25.5448 51.9586C25.5448 52.4528 25.5592 52.9449 25.5778 53.4359H114.152C114.152 53.5607 114.145 53.6835 114.142 53.8052C114.116 54.2994 114.082 54.7904 114.038 55.2825C114.031 55.4043 114.02 55.5291 114.005 55.6519C113.961 56.146 113.902 56.6412 113.842 57.1292C113.828 57.254 113.809 57.3757 113.791 57.4985C113.372 60.5251 112.624 63.4969 111.56 66.3613C111.516 66.4871 111.472 66.6089 111.42 66.7306C110.744 68.5081 109.947 70.2371 109.034 71.9053C108.99 71.9857 108.945 72.0672 108.898 72.1487C108.636 72.6302 108.361 73.103 108.073 73.5672C108.028 73.6446 107.984 73.7178 107.932 73.7963C107.656 74.2574 107.364 74.7113 107.06 75.1622C107.013 75.2364 106.965 75.3138 106.909 75.387C106.614 75.8307 106.303 76.2701 105.985 76.6982C105.936 76.7738 105.883 76.8468 105.827 76.917C105.517 77.3451 105.188 77.766 104.856 78.1797L107.249 80.5731L107.474 80.798L108.564 81.8874L108.785 82.1092L109.875 83.1986L110.097 83.4204L127.943 101.26Z" fill="white"/>
<path d="M113.613 101.26H113.244L96.1189 84.1352C95.6938 84.4561 95.2585 84.7707 94.819 85.073C94.7447 85.1287 94.6715 85.1761 94.5972 85.2277C94.1546 85.5372 93.7069 85.8302 93.2489 86.1149C93.1715 86.1665 93.0941 86.2181 93.0168 86.2583C92.5587 86.5503 92.0883 86.8278 91.6168 87.0929C91.5353 87.1414 91.458 87.1858 91.3765 87.2301C90.895 87.4997 90.4088 87.758 89.9177 88.0049C89.8362 88.0492 89.7588 88.0905 89.6742 88.1307C89.1749 88.3825 88.6688 88.6232 88.1557 88.8529C88.0701 88.89 87.9855 88.9303 87.8967 88.9674C82.8877 91.1577 77.4895 92.3187 72.023 92.3814C66.5564 92.4442 61.1329 91.4075 56.0749 89.3329C51.0169 87.2583 46.4276 84.1881 42.5795 80.3047C38.7315 76.4214 35.7034 71.8042 33.675 66.7274H34.0516C36.0711 71.7326 39.0721 76.2829 42.8777 80.1101C46.6833 83.9373 51.2165 86.9641 56.2101 89.0119C61.2038 91.0598 66.5569 92.0873 71.9538 92.0339C77.3508 91.9806 82.6825 90.8474 87.6347 88.7012C87.7234 88.6672 87.8091 88.627 87.8967 88.5867C88.4126 88.3608 88.9201 88.1246 89.4225 87.8739C89.5071 87.8326 89.5845 87.7924 89.666 87.748C90.1601 87.5045 90.6481 87.2456 91.1278 86.9764C91.2093 86.9351 91.2908 86.8876 91.3682 86.8392C91.8448 86.5771 92.3139 86.302 92.7754 86.0138C92.8527 85.9664 92.927 85.922 93.0044 85.8663C93.4624 85.5857 93.9129 85.2917 94.3558 84.9843C94.4301 84.9358 94.5033 84.8811 94.5776 84.8285C95.0171 84.5262 95.4493 84.2157 95.8775 83.8907C95.9476 83.8392 96.0178 83.7875 96.0838 83.7318L96.3273 83.9753L97.4023 85.0462L97.6426 85.2865L98.7207 86.3687L100.039 87.6871L100.265 87.9089L101.354 89.0014L101.579 89.2232L102.669 90.3126L102.886 90.5345L113.613 101.26Z" fill="white"/>
<path d="M130.555 101.26H130.178L111.093 82.1751L110.871 81.9533L109.775 80.8567L109.553 80.6349L108.234 79.3164L107.145 78.227L106.912 77.9939C106.969 77.9245 107.022 77.8518 107.071 77.7762C107.393 77.3481 107.702 76.9158 107.999 76.4732L108.155 76.2514C108.457 75.8047 108.749 75.3498 109.034 74.8917C109.081 74.8185 109.13 74.7442 109.177 74.6668C109.462 74.2019 109.739 73.7315 110.009 73.2556C110.053 73.1751 110.101 73.0977 110.142 73.0162C111.269 70.998 112.235 68.8938 113.03 66.7233C113.078 66.6015 113.122 66.4798 113.163 66.3539C114.188 63.4832 114.909 60.5126 115.312 57.4912C115.331 57.3684 115.345 57.2436 115.361 57.1218C115.423 56.6297 115.478 56.1387 115.52 55.6445C115.534 55.5218 115.546 55.4 115.553 55.2752C115.597 54.7872 115.626 54.2921 115.656 53.7979C115.664 53.6762 115.667 53.5534 115.667 53.4286C115.693 52.9406 115.704 52.4454 115.707 51.9513H27.0818C27.0818 51.8295 27.0818 51.7037 27.0818 51.582C27.0818 51.0868 27.089 50.5957 27.1076 50.1046C27.1076 49.9788 27.1148 49.8571 27.122 49.7353C27.1406 49.2401 27.1664 48.7491 27.2035 48.258C27.2149 48.1322 27.2221 48.0104 27.2365 47.8887C27.2737 47.3935 27.3222 46.9024 27.3851 46.4114C27.3954 46.2897 27.4109 46.1638 27.4253 46.0421C27.8173 42.8945 28.5492 39.7987 29.6083 36.8089C29.6485 36.6872 29.6929 36.5613 29.7372 36.4396C32.8495 27.8446 38.5341 20.4171 46.0178 15.1678C53.5014 9.91844 62.4206 7.10217 71.5618 7.10217C80.7029 7.10217 89.6221 9.91844 97.1057 15.1678C104.589 20.4171 110.274 27.8446 113.386 36.4396H113.04C109.935 27.9337 104.291 20.5879 96.8716 15.3976C89.4522 10.2073 80.6164 7.42354 71.5618 7.42354C62.5071 7.42354 53.6713 10.2073 46.2519 15.3976C38.8325 20.5879 33.1882 27.9337 30.0838 36.4396C30.0364 36.5613 29.992 36.6831 29.9518 36.8089C28.8837 39.797 28.1468 42.8932 27.7544 46.0421C27.7359 46.1679 27.7204 46.2897 27.7101 46.4114C27.6502 46.9024 27.6069 47.3935 27.5615 47.8887C27.5512 48.0104 27.5398 48.1322 27.5326 48.258C27.4955 48.7491 27.4656 49.2401 27.4511 49.7353C27.4398 49.8571 27.4367 49.9788 27.4367 50.1046C27.414 50.5957 27.4068 51.0868 27.4068 51.582H116.042C116.042 51.7037 116.042 51.8295 116.042 51.9513C116.042 52.4454 116.026 52.9375 116.005 53.4286C116.005 53.5503 115.997 53.6762 115.989 53.7979C115.967 54.2921 115.934 54.7831 115.886 55.2752C115.879 55.4 115.867 55.5218 115.856 55.6445C115.812 56.1387 115.76 56.6297 115.697 57.1218C115.683 57.2436 115.668 57.3684 115.646 57.4912C115.247 60.5119 114.533 63.4825 113.514 66.3539C113.474 66.4757 113.43 66.6015 113.385 66.7233C112.568 68.9766 111.567 71.1592 110.394 73.2494C110.35 73.3309 110.306 73.4113 110.257 73.4928C109.991 73.9653 109.715 74.4347 109.423 74.8969C109.378 74.9743 109.334 75.0475 109.282 75.1249C108.998 75.5829 108.703 76.0348 108.399 76.4805C108.352 76.5547 108.296 76.628 108.245 76.7023C107.945 77.1417 107.635 77.5781 107.316 78.0062L108.638 79.3278L109.728 80.4172L109.949 80.639L130.555 101.26Z" fill="white"/>
<path d="M125.332 101.26H124.955L108.716 85.0184L108.498 84.8007L107.409 83.7144L107.187 83.4926L106.105 82.4073L105.88 82.1814L104.569 80.8713L103.498 79.7994L102.194 78.4964L101.947 78.2519C102.009 78.1859 102.069 78.1199 102.124 78.0528C102.472 77.6505 102.811 77.244 103.136 76.8303C103.199 76.7602 103.255 76.6942 103.306 76.624C103.638 76.2062 103.956 75.7822 104.27 75.353C104.321 75.2798 104.373 75.2096 104.429 75.1354C104.738 74.7 105.048 74.2605 105.338 73.8097C105.391 73.7362 105.44 73.6598 105.485 73.5807C105.784 73.1268 106.071 72.6677 106.345 72.2035C106.394 72.125 106.438 72.0477 106.483 71.9703C106.763 71.4978 107.028 71.0212 107.283 70.5343C107.332 70.4545 107.375 70.3718 107.413 70.2867C108.025 69.1306 108.576 67.9433 109.064 66.7296C109.115 66.6079 109.167 66.4861 109.215 66.3603C110.339 63.5063 111.131 60.5325 111.576 57.4975C111.594 57.3747 111.612 57.253 111.627 57.1282C111.698 56.6402 111.756 56.145 111.805 55.6509H23.5567C23.5454 55.5281 23.534 55.4033 23.5268 55.2815C23.4907 54.7895 23.4608 54.2984 23.4381 53.8042C23.4309 53.6825 23.4278 53.5597 23.4237 53.4349C23.402 52.9469 23.3906 52.4518 23.3906 51.9576C23.3906 51.8359 23.3906 51.71 23.3906 51.5883C23.3906 51.0931 23.3978 50.602 23.4133 50.111C23.4133 49.9851 23.4206 49.8634 23.4278 49.7417C23.4463 49.2465 23.4721 48.7513 23.5051 48.2644C23.5124 48.1385 23.5206 48.0168 23.5309 47.895C23.5681 47.3999 23.6124 46.9088 23.664 46.4177C23.6795 46.296 23.6939 46.1743 23.7053 46.0484C24.0683 42.9126 24.7387 39.82 25.7067 36.8153L25.8284 36.446C29.0126 26.834 35.1448 18.4698 43.3537 12.5415C51.5627 6.61334 61.4309 3.42261 71.5566 3.42261C81.6824 3.42261 91.5506 6.61334 99.7596 12.5415C107.968 18.4698 114.101 26.834 117.285 36.446H116.956C113.778 26.9193 107.683 18.6337 99.5356 12.7625C91.3878 6.89129 81.5994 3.73201 71.5566 3.73201C61.5138 3.73201 51.7255 6.89129 43.5777 12.7625C35.4299 18.6337 29.3355 26.9193 26.1575 36.446C26.1162 36.5677 26.076 36.6894 26.0347 36.8153C25.0573 39.8181 24.383 42.9112 24.022 46.0484C24.0044 46.1743 23.9931 46.296 23.9818 46.4177C23.9261 46.9088 23.8786 47.3999 23.8415 47.895C23.8342 48.0168 23.8229 48.1385 23.8157 48.2644C23.7826 48.7554 23.7569 49.2465 23.7383 49.7417C23.7311 49.8634 23.7269 49.9893 23.7228 50.111C23.7084 50.602 23.7012 51.0931 23.7012 51.5883C23.7012 51.71 23.7012 51.8359 23.7012 51.9576C23.7012 52.4521 23.7122 52.9445 23.7342 53.4349C23.7342 53.5566 23.7414 53.6825 23.7486 53.8042C23.7713 54.2984 23.8002 54.7895 23.8373 55.2815H112.18C112.173 55.4033 112.162 55.5281 112.151 55.6509C112.1 56.145 112.048 56.6402 111.974 57.1282C111.959 57.253 111.941 57.3747 111.918 57.4975C111.481 60.5311 110.698 63.5047 109.585 66.3603C109.536 66.482 109.489 66.6079 109.436 66.7296C108.916 68.0325 108.327 69.3066 107.671 70.5466C107.631 70.6281 107.586 70.7096 107.542 70.7911C107.283 71.275 107.018 71.7475 106.733 72.221C106.693 72.2984 106.645 72.3757 106.597 72.4531C106.32 72.9184 106.035 73.3816 105.736 73.8303C105.688 73.9087 105.64 73.9861 105.588 74.0594C105.293 74.5061 104.99 74.9455 104.672 75.3778C104.623 75.4536 104.57 75.5266 104.513 75.5965C104.204 76.0277 103.882 76.4486 103.55 76.8664C103.498 76.9366 103.447 77.0067 103.384 77.0728C103.055 77.4854 102.716 77.8929 102.368 78.2953L103.432 79.3589L103.671 79.5993L106.053 81.9813L106.279 82.2062L107.365 83.2884L107.586 83.5133L108.672 84.5996L108.894 84.8172L125.332 101.26Z" fill="white"/>
<path d="M133.165 101.26H132.788L112.21 80.6823L111.988 80.4605L110.888 79.3597L110.663 79.1348L109.562 78.0341L109.337 77.8092C109.385 77.7349 109.44 77.6616 109.492 77.5874C109.795 77.1438 110.09 76.694 110.382 76.239C110.427 76.1658 110.478 76.0884 110.522 76.01C110.814 75.553 111.095 75.0877 111.368 74.6183C111.416 74.5368 111.46 74.4553 111.505 74.378C112.902 71.9417 114.07 69.3813 114.995 66.7294C115.039 66.6077 115.083 66.4818 115.124 66.3601C116.103 63.4818 116.792 60.5128 117.181 57.4973C117.196 57.3745 117.211 57.2528 117.225 57.128C117.285 56.6359 117.336 56.1448 117.381 55.6507C117.392 55.5248 117.402 55.4031 117.41 55.2814C117.451 54.7893 117.48 54.2982 117.506 53.804C117.506 53.6823 117.517 53.5565 117.521 53.4347C117.54 52.9437 117.554 52.4516 117.554 51.9574C117.554 51.8357 117.554 51.7098 117.554 51.5881C117.554 51.0929 117.546 50.6018 117.531 50.1108H28.9387C28.9387 49.9891 28.9387 49.8632 28.9542 49.7415C28.9686 49.2463 28.9986 48.7552 29.0388 48.2642C29.046 48.1424 29.0574 48.0166 29.0718 47.8948C29.1089 47.3997 29.1605 46.9045 29.2235 46.4176C29.2379 46.2917 29.2534 46.17 29.2678 46.0482C29.6791 42.8945 30.4446 39.7972 31.5498 36.8151C31.5942 36.6892 31.6385 36.5675 31.6901 36.4458C34.761 28.3602 40.2183 21.3998 47.3375 16.4883C54.4568 11.5768 62.9013 8.94653 71.5504 8.94653C80.1995 8.94653 88.644 11.5768 95.7633 16.4883C102.883 21.3998 108.34 28.3602 111.411 36.4458H111.049C107.987 28.4529 102.572 21.5769 95.5198 16.7265C88.4676 11.876 80.1097 9.27918 71.5504 9.27918C62.9911 9.27918 54.6332 11.876 47.581 16.7265C40.5287 21.5769 35.114 28.4529 32.0522 36.4458C32.0006 36.5675 31.9563 36.6933 31.9119 36.8151C30.7967 39.7954 30.0249 42.8931 29.6113 46.0482C29.5928 46.17 29.5783 46.2958 29.5629 46.4176C29.5041 46.9086 29.4525 47.3997 29.4122 47.8948C29.3968 48.0166 29.3895 48.1424 29.3782 48.2642C29.3421 48.7552 29.3122 49.2463 29.2936 49.7415H117.837C117.837 49.8632 117.847 49.9849 117.851 50.1108C117.866 50.6018 117.873 51.0929 117.873 51.5881C117.873 51.7098 117.873 51.8357 117.873 51.9574C117.873 52.4516 117.858 52.9437 117.84 53.4347C117.84 53.5595 117.829 53.6823 117.824 53.804C117.799 54.2982 117.77 54.7893 117.728 55.2814C117.721 55.4031 117.71 55.5279 117.7 55.6507C117.655 56.1448 117.607 56.64 117.544 57.128C117.533 57.2528 117.518 57.3745 117.499 57.4973C117.117 60.5121 116.434 63.4811 115.461 66.3601C115.421 66.4818 115.376 66.6046 115.336 66.7294C114.387 69.4636 113.182 72.1024 111.739 74.6111C111.694 74.6916 111.646 74.77 111.602 74.8473C111.328 75.3198 111.045 75.7851 110.756 76.2431C110.708 76.3174 110.66 76.3948 110.612 76.468C110.324 76.923 110.025 77.3697 109.719 77.8092L133.165 101.26Z" fill="white"/>
<path d="M135.776 101.26H135.404L111.719 77.5791L111.867 77.3542C112.159 76.9003 112.443 76.4381 112.72 75.9728C112.764 75.8955 112.812 75.814 112.86 75.7366C114.533 72.8853 115.904 69.8677 116.952 66.7325C116.993 66.6108 117.033 66.489 117.075 66.3632C118.014 63.4788 118.674 60.5109 119.046 57.5004C119.062 57.3776 119.076 57.2528 119.087 57.1311C119.146 56.639 119.191 56.1479 119.238 55.6538C119.249 55.531 119.257 55.4093 119.268 55.2845C119.305 54.7924 119.335 54.3013 119.357 53.8071C119.364 53.6854 119.368 53.5596 119.371 53.4378C119.394 52.9468 119.405 52.4543 119.405 51.9605C119.405 51.8388 119.405 51.7129 119.405 51.5912C119.405 51.096 119.398 50.6049 119.383 50.1139C119.383 49.9922 119.375 49.8663 119.368 49.7446C119.349 49.2494 119.324 48.7583 119.291 48.2673H30.8918C30.8991 48.1455 30.9104 48.0197 30.9249 47.8979C30.9651 47.4028 31.0167 46.9076 31.0796 46.4206C31.0982 46.2948 31.1126 46.173 31.1312 46.0513C31.5601 42.89 32.3621 39.7907 33.5204 36.8182C33.5689 36.6964 33.6174 36.5706 33.669 36.4489C36.6961 28.8759 41.9233 22.384 48.6761 17.811C55.4288 13.2379 63.3972 10.7937 71.5527 10.7937C79.7082 10.7937 87.6766 13.2379 94.4293 17.811C101.182 22.384 106.409 28.8759 109.436 36.4489H109.06C106.043 28.9723 100.86 22.5682 94.1766 18.0584C87.4935 13.5486 79.6151 11.1391 71.5527 11.1391C63.4903 11.1391 55.6119 13.5486 48.9288 18.0584C42.2456 22.5682 37.0628 28.9723 34.0455 36.4489C33.994 36.5706 33.9424 36.6923 33.8939 36.8182C32.7238 39.7884 31.914 42.8883 31.4819 46.0513C31.4634 46.173 31.4458 46.2948 31.4303 46.4206C31.3674 46.9076 31.3127 47.4028 31.2715 47.8979H119.579C119.591 48.0197 119.598 48.1414 119.605 48.2673C119.638 48.7542 119.664 49.2494 119.683 49.7446C119.69 49.8663 119.694 49.988 119.697 50.1139C119.713 50.6049 119.72 51.096 119.72 51.5912C119.72 51.7129 119.72 51.8388 119.72 51.9605C119.72 52.4547 119.709 52.9499 119.687 53.4378C119.687 53.5626 119.679 53.6854 119.672 53.8071C119.65 54.3013 119.621 54.7924 119.584 55.2845C119.576 55.4062 119.565 55.531 119.554 55.6538C119.513 56.1479 119.465 56.639 119.41 57.1311C119.395 57.2528 119.38 57.3745 119.362 57.5004C118.994 60.5101 118.34 63.4778 117.408 66.3632L117.286 66.7325C116.219 69.9484 114.814 73.0421 113.095 75.9615C113.046 76.0399 112.999 76.1204 112.954 76.1978C112.674 76.6641 112.389 77.1262 112.094 77.5791L113.427 78.913L135.776 101.26Z" fill="white"/>
<path d="M138.395 101.26H138.019L114.297 77.54L114.068 77.3141C114.117 77.2367 114.164 77.1593 114.213 77.0778C116.169 73.8206 117.741 70.3481 118.899 66.7295C118.94 66.6077 118.98 66.486 119.017 66.3601C119.919 63.4703 120.552 60.5035 120.908 57.4974C120.922 57.3746 120.938 57.2498 120.952 57.128C121.008 56.636 121.055 56.1449 121.097 55.6507C121.104 55.528 121.114 55.4032 121.123 55.2814C121.159 54.7893 121.189 54.2983 121.207 53.8041C121.214 53.6824 121.222 53.5596 121.226 53.4348C121.244 52.9437 121.254 52.4513 121.255 51.9575C121.255 51.8358 121.255 51.7099 121.255 51.5882C121.255 51.093 121.247 50.6019 121.233 50.1109L121.222 49.7415C121.203 49.2464 121.177 48.7553 121.144 48.2642C121.137 48.1425 121.129 48.0166 121.118 47.8949C121.081 47.3997 121.04 46.9087 120.985 46.4176H32.9404C32.9559 46.2959 32.9745 46.17 32.993 46.0483C33.4436 42.878 34.2882 39.7763 35.5071 36.8151C35.5598 36.6934 35.6103 36.5676 35.6588 36.4458C38.6371 29.3868 43.6307 23.3627 50.015 19.127C56.3993 14.8913 63.8909 12.6322 71.5525 12.6322C79.2141 12.6322 86.7056 14.8913 93.0899 19.127C99.4742 23.3627 104.468 29.3868 107.446 36.4458H107.054C104.087 29.4866 99.1402 23.5528 92.8282 19.3822C86.5163 15.2115 79.1178 12.988 71.5525 12.988C63.9871 12.988 56.5886 15.2115 50.2767 19.3822C43.9648 23.5528 39.0178 29.4866 36.0508 36.4458C35.9951 36.5676 35.9476 36.6893 35.895 36.8151C34.6589 39.7725 33.804 42.8752 33.351 46.0483H121.262C121.273 46.17 121.288 46.2959 121.299 46.4176C121.351 46.9087 121.395 47.3997 121.428 47.8949C121.439 48.0166 121.446 48.1384 121.454 48.2642C121.488 48.7553 121.514 49.2464 121.532 49.7415L121.542 50.1109C121.558 50.6019 121.565 51.093 121.565 51.5882C121.565 51.7099 121.565 51.8358 121.565 51.9575C121.565 52.4516 121.554 52.9437 121.536 53.4348C121.536 53.5565 121.525 53.6824 121.518 53.8041C121.499 54.2983 121.469 54.7893 121.432 55.2814C121.425 55.4032 121.413 55.5249 121.403 55.6507C121.366 56.1449 121.318 56.636 121.266 57.128C121.251 57.2498 121.237 57.3746 121.222 57.4974C120.869 60.5031 120.239 63.4699 119.342 66.3601C119.305 66.4819 119.265 66.6077 119.227 66.7295C118.047 70.4294 116.44 73.9791 114.438 77.3068L138.395 101.26Z" fill="white"/>
<path d="M108.395 101.26H108.019L98.3503 91.5919L98.1285 91.3701L96.7874 90.0289L95.6866 88.9282C95.2327 89.2239 94.7736 89.5097 94.3094 89.7855C94.232 89.834 94.1505 89.8814 94.0731 89.9258C93.6037 90.2064 93.1271 90.4726 92.6433 90.7346C92.5628 90.779 92.4813 90.8233 92.3998 90.8604C91.9129 91.1256 91.4177 91.3763 90.9194 91.6177C90.8338 91.662 90.7492 91.7023 90.6646 91.7394C85.0636 94.4087 78.9659 95.8761 72.7637 96.0474C66.5615 96.2188 60.3921 95.0901 54.6522 92.7341C48.9124 90.3781 43.7292 86.8469 39.4359 82.3675C35.1426 77.8882 31.8344 72.5599 29.7239 66.7253H30.0705C32.1741 72.4933 35.4579 77.759 39.7122 82.1858C43.9664 86.6126 49.0974 90.1031 54.7772 92.4343C60.4571 94.7655 66.5608 95.886 72.6983 95.7242C78.8358 95.5625 84.872 94.122 90.4211 91.4949C90.5068 91.4588 90.5914 91.4175 90.676 91.3773C91.1753 91.1369 91.6735 90.8862 92.1605 90.6201C92.242 90.5829 92.3235 90.5386 92.405 90.4942C92.8888 90.2363 93.3685 89.966 93.8379 89.6895C93.9184 89.6411 93.9968 89.5967 94.0742 89.5492C94.5394 89.2717 95.0026 88.988 95.4514 88.6919C95.5288 88.6445 95.6062 88.596 95.6804 88.5444L95.9136 88.7776L108.395 101.26Z" fill="white"/>
<path d="M105.784 101.26H105.408L98.1025 93.9554L95.4203 91.2731C94.955 91.5537 94.4825 91.8313 94.0059 92.0985L93.7655 92.2315C93.2817 92.4967 92.7948 92.7556 92.2996 93.0032C92.2139 93.0434 92.1335 93.0878 92.0479 93.1291C86.1542 96.0381 79.709 97.6597 73.1404 97.8859C66.5718 98.1122 60.0302 96.938 53.9504 94.4413C47.8705 91.9447 42.3916 88.1828 37.8777 83.4055C33.3637 78.6283 29.9181 72.9451 27.7698 66.7336H28.1092C30.2503 72.8803 33.6717 78.5025 38.1472 83.2286C42.6227 87.9547 48.0504 91.6771 54.0714 94.1496C60.0924 96.6221 66.5697 97.7885 73.075 97.5717C79.5803 97.3549 85.9655 95.7597 91.8085 92.8918C91.8931 92.8515 91.9777 92.8113 92.0592 92.7669C92.5544 92.5193 93.0454 92.2645 93.5293 91.9984C93.6108 91.9581 93.6881 91.9138 93.7696 91.8653C94.2452 91.6033 94.7219 91.3299 95.1871 91.0462C95.2686 91.0018 95.346 90.9533 95.4234 90.9059L95.6524 91.1339L96.7676 92.2501L96.9966 92.4791L98.1087 93.5902L105.784 101.26Z" fill="white"/>
<path d="M103.169 101.26H102.804L96.4781 94.9344L96.2532 94.7126L95.1266 93.586C94.6459 93.8553 94.1631 94.1184 93.671 94.369C93.5905 94.4134 93.509 94.4578 93.4244 94.498C87.2415 97.6506 80.4503 99.4296 73.5158 99.7131C66.5814 99.9967 59.6676 98.7782 53.2479 96.1409C46.8283 93.5037 41.0544 89.5102 36.3219 84.4338C31.5893 79.3574 28.0098 73.3181 25.8286 66.7295H26.1577C28.333 73.2549 31.8898 79.2346 36.5856 84.2609C41.2813 89.2872 47.0056 93.2419 53.3682 95.8554C59.7309 98.4689 66.5822 99.6798 73.4552 99.4055C80.3282 99.1312 87.0613 97.3781 93.1954 94.2659C93.2759 94.2246 93.3615 94.1803 93.442 94.1359C93.9341 93.8852 94.4179 93.6201 94.8976 93.3539C94.9791 93.3095 95.0565 93.2652 95.1339 93.2208L96.4894 94.5764L96.7143 94.8013L103.169 101.26Z" fill="white"/>
<path d="M100.558 101.26H100.186L94.7901 95.8649C89.3746 98.7224 83.4766 100.552 77.3947 101.26C65.8531 102.614 54.2002 99.9086 44.436 93.6077C34.6719 87.3068 27.4054 77.8037 23.8838 66.7295H24.2129C27.348 76.4836 33.4153 85.0334 41.5875 91.213C49.7596 97.3926 59.6389 100.901 69.8782 101.26C70.4353 101.279 70.9934 101.29 71.5546 101.29C72.1385 101.29 72.7183 101.279 73.2981 101.26C80.7187 101.007 87.9867 99.0835 94.5611 95.6328C94.6415 95.5926 94.7231 95.5482 94.8046 95.5039L100.558 101.26Z" fill="white"/>
<path d="M111.007 101.26H110.63L99.6648 90.2951L98.5681 89.1985L98.3391 88.9695L97.2456 87.877L95.9241 86.5544C95.4846 86.8639 95.041 87.1641 94.5902 87.4561C94.5128 87.5035 94.4354 87.5592 94.358 87.5995C93.9 87.8956 93.4378 88.1761 92.9694 88.4454C92.8921 88.497 92.8106 88.5414 92.7332 88.5857C92.2566 88.8591 91.7758 89.1252 91.2889 89.3759C91.2074 89.4203 91.1259 89.4647 91.0455 89.5049C90.5503 89.7638 90.0479 90.0073 89.5424 90.2405C89.4567 90.2848 89.3763 90.325 89.2875 90.3622C83.9808 92.7909 78.2318 94.1041 72.3969 94.2203C66.5619 94.3365 60.7652 93.2532 55.366 91.0376C49.9668 88.822 45.08 85.5213 41.0086 81.34C36.9371 77.1586 33.7676 72.1858 31.6965 66.7295H32.0586C34.1231 72.116 37.2675 77.0233 41.2985 81.1496C45.3296 85.276 50.1621 88.5341 55.4989 90.7238C60.8357 92.9135 66.564 93.9883 72.3316 93.8823C78.0992 93.7763 83.7841 92.4917 89.0369 90.1074C89.1215 90.0702 89.2061 90.03 89.2917 89.9887C89.8013 89.7566 90.3006 89.509 90.7948 89.2542C90.8763 89.214 90.9578 89.1727 91.0393 89.1284C91.5262 88.8777 92.01 88.6125 92.4836 88.3381C92.5651 88.2937 92.6455 88.2494 92.7239 88.2019C93.1923 87.9286 93.6524 87.6479 94.1125 87.356C94.1899 87.3116 94.2672 87.2632 94.3446 87.2116C94.7958 86.9241 95.2428 86.6249 95.6858 86.3141C95.76 86.2666 95.8333 86.2109 95.9076 86.1593L111.007 101.26Z" fill="white"/>
<path d="M116.229 101.26H115.852L103.893 89.3017L102.804 88.2051L102.582 87.9874L101.497 86.898L101.271 86.6762L100.186 85.5899L99.9565 85.3609L98.8816 84.2869L98.6453 84.0466L97.5745 82.9788L96.2674 81.6718C95.8548 82.0115 95.4373 82.3402 95.015 82.658C94.949 82.7137 94.8788 82.7611 94.8087 82.8199C94.3795 83.1377 93.9435 83.4472 93.5006 83.7484C93.4273 83.801 93.3531 83.8516 93.2757 83.9001C92.829 84.2034 92.3782 84.4953 91.917 84.7759C91.8386 84.8275 91.7613 84.8719 91.6839 84.9193C91.2186 85.204 90.7461 85.4733 90.2695 85.7446L90.026 85.8777C89.5381 86.1398 89.0429 86.3935 88.5446 86.635C88.46 86.6793 88.3826 86.7195 88.297 86.7567C87.7901 87.0001 87.2778 87.2329 86.7599 87.4551C86.6712 87.4912 86.5866 87.5283 86.4978 87.5655C76.991 91.511 66.3091 91.534 56.7854 87.6294C47.2617 83.7249 39.6702 76.21 35.6692 66.7264H36.0612C40.0385 76.0618 47.5334 83.4546 56.9225 87.3035C66.3115 91.1524 76.8389 91.1475 86.2244 87.29C86.3163 87.257 86.4019 87.2157 86.4906 87.1796C87.0064 86.9609 87.5222 86.7319 88.0381 86.4884C88.1237 86.4482 88.2052 86.4069 88.2898 86.3708C88.7881 86.1263 89.2833 85.8756 89.7702 85.6136L90.0147 85.4805C90.4944 85.2185 90.9669 84.9482 91.4321 84.6645C91.5106 84.6202 91.591 84.5717 91.6694 84.5242C92.1264 84.2395 92.5814 83.9516 93.0281 83.6483C93.1013 83.6009 93.1797 83.5452 93.253 83.4967C93.6966 83.1948 94.1326 82.8853 94.5611 82.5682C94.6343 82.5136 94.7045 82.4651 94.7674 82.4094C95.1911 82.0889 95.6082 81.7591 96.0188 81.42C96.0912 81.3678 96.1601 81.311 96.2251 81.2498L96.4799 81.5046L97.5425 82.5662L97.786 82.8138L98.8537 83.8805L99.0941 84.1167L100.165 85.1917L100.397 85.4207L101.479 86.506L101.705 86.7278L102.79 87.8172L103.012 88.0359L104.102 89.1253L104.319 89.3461L116.229 101.26Z" fill="white"/>
</g>
</svg>
