<svg width="512" height="512" viewBox="0 0 512 512" fill="none" xmlns="http://www.w3.org/2000/svg">
<path d="M456.284 194.343L293.817 284.294L253.52 462.393C252.809 465.536 250.207 467.945 246.96 468.466L246.936 468.47C243.698 468.979 240.482 467.506 238.827 464.75L18.1813 97.4023L16.3818 96.1183L16.9531 95.3559L15.2136 92.4601C13.596 89.7673 13.7879 86.377 15.7014 83.8501C17.615 81.3233 20.8785 80.1485 23.9939 80.8655L454.271 179.95C457.464 180.686 459.856 183.26 460.301 186.44C460.745 189.619 459.151 192.755 456.283 194.342L456.284 194.343ZM242.332 439.641L277.87 282.572L50.6896 120.582L242.331 439.642L242.332 439.641ZM54.6365 103.997L287.386 269.959L430.721 190.601L54.6365 103.997Z" fill="white"/>
</svg>
